<?xml version="1.0" encoding="UTF-8" standalone="no"?>
<svg
   xmlns:dc="http://purl.org/dc/elements/1.1/"
   xmlns:cc="http://creativecommons.org/ns#"
   xmlns:rdf="http://www.w3.org/1999/02/22-rdf-syntax-ns#"
   xmlns:svg="http://www.w3.org/2000/svg"
   xmlns="http://www.w3.org/2000/svg"
   xmlns:sodipodi="http://sodipodi.sourceforge.net/DTD/sodipodi-0.dtd"
   xmlns:inkscape="http://www.inkscape.org/namespaces/inkscape"
   version="1.0"
   width="699.87054pt"
   height="138.84184pt"
   viewBox="0 0 699.87054 138.84184"
   preserveAspectRatio="xMidYMid meet"
   id="svg3753"
   sodipodi:docname="apayus.svg"
   inkscape:version="0.92.5 (2060ec1f9f, 2020-04-08)">
  <metadata
     id="metadata3759">
    <rdf:RDF>
      <cc:Work
         rdf:about="">
        <dc:format>image/svg+xml</dc:format>
        <dc:type
           rdf:resource="http://purl.org/dc/dcmitype/StillImage" />
      </cc:Work>
    </rdf:RDF>
  </metadata>
  <defs
     id="defs3757" />
  <sodipodi:namedview
     pagecolor="#ffffff"
     bordercolor="#666666"
     borderopacity="1"
     objecttolerance="10"
     gridtolerance="10"
     guidetolerance="10"
     inkscape:pageopacity="0"
     inkscape:pageshadow="2"
     inkscape:window-width="1366"
     inkscape:window-height="705"
     id="namedview3755"
     showgrid="false"
     inkscape:zoom="0.7236796"
     inkscape:cx="485.84381"
     inkscape:cy="204.36729"
     inkscape:window-x="-8"
     inkscape:window-y="-8"
     inkscape:window-maximized="1"
     inkscape:current-layer="svg3753" />
  <g
     transform="matrix(0.1,0,0,-0.1,-130,689.84185)"
     id="g3751"
     style="fill:#000000;stroke:none">
    <path
       d="m 6996,6884 c -127,-31 -245,-123 -309,-241 -62,-116 -84,-304 -52,-442 59,-250 283,-409 526,-373 138,20 241,87 303,197 38,70 40,80 12,93 -23,10 -26,8 -45,-32 -31,-64 -82,-118 -142,-151 -49,-27 -63,-30 -144,-30 -74,0 -97,4 -132,23 -92,49 -154,125 -194,242 -19,54 -23,86 -23,195 0,188 32,294 118,383 56,59 108,84 186,90 135,9 223,-67 284,-249 21,-64 28,-74 50,-77 l 26,-3 v 185 186 h -29 c -20,0 -34,-8 -45,-25 l -17,-25 -39,20 c -92,47 -224,61 -334,34 z"
       id="path3737"
       inkscape:connector-curvature="0" />
    <path
       d="m 7825,6880 c -72,-23 -134,-73 -173,-138 -24,-41 -27,-57 -27,-132 0,-166 54,-217 339,-326 70,-26 110,-48 135,-73 91,-91 76,-246 -29,-298 -50,-26 -135,-31 -191,-11 -91,31 -174,124 -214,241 -17,52 -22,57 -49,57 h -29 l 6,-137 c 4,-75 7,-156 7,-180 0,-41 2,-43 28,-43 20,0 33,7 42,25 16,30 20,30 70,5 194,-99 445,-36 531,133 26,51 36,155 20,214 -27,100 -99,154 -316,240 -89,36 -130,58 -161,88 -91,88 -78,212 29,266 59,31 153,22 211,-18 52,-37 98,-105 126,-188 20,-61 23,-65 52,-65 h 31 l -6,128 c -4,70 -7,146 -7,170 0,40 -1,42 -30,42 -16,0 -30,-3 -30,-7 0,-5 -6,-16 -13,-25 -12,-16 -17,-15 -63,7 -101,48 -191,56 -289,25 z"
       id="path3739"
       inkscape:connector-curvature="0" />
    <path
       d="m 1736,6688 c -296,-766 -295,-764 -390,-790 -38,-10 -46,-16 -46,-35 v -23 h 195 195 v 24 c 0,20 -6,24 -45,29 -25,4 -59,14 -75,22 -39,20 -39,44 3,170 l 34,100 h 188 189 l 42,-110 c 24,-60 43,-120 43,-132 1,-27 -23,-41 -84,-49 -39,-6 -45,-10 -45,-30 v -24 h 215 215 v 23 c 0,19 -8,25 -44,35 -24,6 -57,24 -72,39 -20,21 -75,152 -204,488 -176,454 -178,460 -207,463 l -29,3 z m 143,-235 c 39,-100 71,-184 71,-187 0,-4 -70,-6 -155,-6 -85,0 -155,2 -155,4 0,2 21,57 46,123 25,65 59,154 76,197 21,53 33,74 38,65 5,-8 40,-96 79,-196 z"
       id="path3741"
       inkscape:connector-curvature="0" />
    <path
       d="m 2540,6574 c -14,-2 -60,-6 -102,-9 -73,-6 -78,-8 -78,-30 0,-18 7,-24 33,-29 19,-3 45,-18 58,-32 l 24,-26 v -423 c 0,-476 4,-452 -74,-462 -35,-5 -41,-9 -41,-29 v -24 h 200 200 v 23 c 0,20 -8,25 -60,35 -85,18 -90,29 -90,180 0,68 3,122 8,120 70,-37 93,-42 167,-43 71,0 88,4 147,33 78,38 120,82 162,171 59,128 43,318 -37,423 -105,138 -254,164 -391,68 l -55,-39 -3,47 c -3,50 -9,54 -68,46 z m 303,-88 c 80,-34 128,-126 135,-262 11,-210 -70,-344 -206,-344 -47,0 -110,36 -139,79 -22,33 -23,42 -23,248 v 214 l 28,26 c 55,52 138,68 205,39 z"
       id="path3743"
       inkscape:connector-curvature="0" />
    <path
       d="m 3467,6569 c -38,-9 -100,-39 -127,-61 -53,-43 -67,-121 -29,-159 25,-25 79,-21 111,8 17,15 19,26 14,75 -7,56 -6,57 23,73 38,19 104,19 141,0 42,-22 70,-82 70,-149 0,-66 6,-61 -157,-117 -135,-47 -180,-68 -210,-101 -48,-51 -66,-142 -42,-205 47,-125 231,-149 365,-47 25,19 47,34 47,32 37,-77 76,-102 152,-94 71,6 105,21 105,46 0,17 -7,20 -40,20 -30,0 -47,7 -66,25 l -25,25 3,242 c 3,235 2,244 -19,285 -13,23 -38,53 -56,67 -53,41 -170,56 -260,35 z m 203,-457 c 0,-127 0,-129 -27,-154 -61,-57 -135,-73 -193,-43 -39,20 -52,48 -52,106 0,88 54,143 196,195 33,13 64,23 69,23 4,1 7,-57 7,-127 z"
       id="path3745"
       inkscape:connector-curvature="0" />
    <path
       d="m 4835,6570 c -38,-4 -143,-8 -232,-9 l -163,-1 v -24 c 0,-18 7,-25 28,-29 16,-3 39,-15 53,-26 l 24,-19 -22,-65 c -27,-78 -143,-359 -152,-369 -7,-8 -191,429 -191,451 0,6 18,15 40,21 33,9 40,15 40,35 v 25 h -160 -160 v -23 c 0,-18 9,-28 39,-39 21,-9 47,-27 56,-42 9,-14 71,-157 137,-317 92,-223 118,-297 113,-317 -9,-38 -82,-161 -118,-199 l -30,-32 -42,44 c -49,53 -83,58 -120,20 -51,-50 -18,-126 60,-141 91,-17 175,48 252,192 23,44 101,221 173,394 72,173 138,326 146,341 7,15 30,37 49,49 48,30 110,23 142,-15 22,-25 23,-32 23,-244 0,-238 9,-295 56,-350 73,-87 223,-77 342,24 l 41,36 3,-48 c 3,-55 -11,-52 161,-38 83,7 87,8 87,31 0,20 -5,24 -29,24 -16,0 -39,9 -52,19 l -24,19 -5,314 -5,313 -40,-1 c -22,-1 -84,-5 -137,-9 -95,-7 -98,-8 -98,-31 0,-21 4,-24 41,-24 31,0 47,-6 70,-29 l 29,-29 v -225 -225 l -25,-30 c -34,-40 -102,-72 -153,-72 -34,0 -50,7 -80,34 l -37,34 -5,304 -5,303 -25,1 c -14,1 -56,-2 -95,-6 z"
       id="path3747"
       inkscape:connector-curvature="0" />
    <path
       d="m 5790,6571 c -107,-35 -163,-105 -163,-202 0,-102 62,-167 205,-214 107,-36 151,-58 177,-91 42,-53 18,-144 -44,-170 -114,-47 -242,21 -300,159 -12,29 -21,37 -41,37 -20,0 -25,-4 -20,-16 3,-9 6,-65 6,-125 v -109 h 29 c 22,0 30,6 35,24 l 6,24 54,-29 c 70,-38 153,-47 227,-25 108,31 167,97 177,197 12,122 -59,189 -270,258 -83,28 -114,52 -129,100 -30,102 92,166 209,110 46,-23 102,-95 102,-131 0,-13 8,-18 25,-18 24,0 25,2 25,69 0,37 -3,89 -6,115 -6,39 -10,46 -30,46 -14,0 -25,-8 -29,-19 -6,-19 -8,-19 -48,-5 -50,18 -162,27 -197,15 z"
       id="path3749"
       inkscape:connector-curvature="0" />
  </g>
  <path
     style="fill:#aa4400;stroke-width:1.03637028"
     d="m 640.67694,103.38195 -8.20051,-3.26905 -1.99054,2.73258 c -1.0948,1.50291 -2.8127,2.73258 -3.81758,2.73258 -1.60779,0 -1.90833,-1.51189 -2.50448,-12.599164 -1.11484,-20.733578 -1.00168,-22.637431 1.34543,-22.637431 1.52248,0 3.03537,2.160572 6.11577,8.733961 6.36747,13.587848 15.18446,21.069594 26.0691,22.121204 15.13295,1.46207 25.49079,-9.731541 21.77476,-23.531789 C 677.49039,70.317249 672.18764,65.738 659.70913,60.601064 631.29157,48.902625 627.30854,45.01906 627.1825,28.886655 c -0.08,-10.233108 1.49747,-13.679357 9.47586,-20.7022161 8.65631,-7.61958858 23.16183,-9.5535846 35.01923,-4.6690557 7.58958,3.1264421 8.56944,3.157628 11.53964,0.3672703 4.13115,-3.88100864 5.56047,-2.0310577 5.56047,7.1968165 0,4.491916 0.30482,11.773126 0.67738,16.180464 l 0.67737,8.013341 -2.86587,-0.343292 C 684.79563,34.633998 684.0636,33.687278 681.95434,28.059804 676.61882,13.824761 668.52014,6.8076464 657.27891,6.6797667 643.60758,6.5242421 635.50106,17.393543 640.45163,29.241938 c 2.34847,5.620676 9.03899,10.301196 23.68739,16.571102 22.76452,9.743824 28.74055,15.809354 28.76134,29.192091 0.0155,10.002998 -1.34125,14.014988 -6.78859,20.073743 -7.13971,7.941066 -14.03245,10.823756 -26.87062,11.237846 -9.61459,0.31011 -10.95646,0.0979 -18.56421,-2.93477 z"
     id="path3769"
     inkscape:connector-curvature="0" />
  <path
     style="fill:#aa4400;stroke-width:1.03637028"
     d="m 561.23608,104.81567 c -15.96806,-5.722736 -27.84847,-18.937076 -31.72555,-35.287668 -1.67723,-7.073265 -1.39989,-22.414817 0.55477,-30.689056 2.37337,-10.046597 7.15088,-18.394309 14.33269,-25.043403 6.92663,-6.4128365 11.12888,-8.8134314 19.88256,-11.3581948 8.86899,-2.57828657 22.78421,-1.75903223 31.61166,1.8611275 l 6.6606,2.7315308 2.35815,-2.5444892 c 1.29699,-1.3994692 3.31315,-2.5444892 4.48038,-2.5444892 2.05819,0 2.12223,0.5493859 2.12223,18.2085599 0,18.0449 -0.02,18.205584 -2.22864,17.877387 -1.74481,-0.259276 -3.05732,-2.398272 -6.04565,-9.852604 -6.68386,-16.672747 -13.28065,-22.4039076 -25.75886,-22.3787689 -8.42047,0.016964 -13.03613,1.845512 -19.35056,7.6659479 -8.62326,7.948644 -11.49521,14.857688 -12.87493,30.973204 -1.92495,22.483886 2.13121,36.549602 13.60253,47.170015 7.39715,6.84846 11.18576,8.083425 23.333,7.60584 8.86834,-0.348675 9.69285,-0.581588 14.9976,-4.23651 3.53532,-2.435813 7.10754,-6.176453 9.64965,-10.104608 3.85417,-5.955622 5.89057,-7.427445 7.24482,-5.236237 1.03489,1.67451 -3.53829,9.416055 -8.93027,15.117277 -7.55053,7.983579 -15.15496,11.082409 -28.3571,11.555629 -8.06693,0.28914 -11.51509,-0.0412 -15.55908,-1.49049 z"
     id="path3771"
     inkscape:connector-curvature="0" />
</svg>
