<svg version="1.0" xmlns="http://www.w3.org/2000/svg" width="4725.333" height="1157.333" viewBox="0 0 3544 868"><defs/><path d="M388.8 27.5c-97.1 9.3-183.4 50.7-251.3 120.7C74.8 212.8 35.8 297.4 26.9 388.5c-1.6 16.5-1.6 58.3 0 74 9.5 93.6 47.6 176 111.6 241.4 20.8 21.3 38.4 36.2 60.5 51.3 49.5 33.8 100.6 54.5 160 64.7 10.1 1.7 19.3 2.8 39 4.6 9.6.9 49 .6 60.5-.5 42.2-3.9 76.4-11.9 114-26.7 13.1-5.2 36.9-16.3 38.9-18.3s-7.8-32.7-17-53.3c-6.4-14.4-17.6-33.8-26.3-45.5-11.3-15.2-33.3-35.3-42.5-38.8-2.6-1-1.9-1.9 4.1-5.9 11.8-7.9 24.9-22.4 32.4-36.1 2.3-4.1 4.4-7.4 4.7-7.4 3.2 0 28.5 4.8 39.7 7.5 25.5 6.1 46.6 13.6 69.5 24.6 22.9 11 41.7 22.6 59.6 36.5 7.5 5.8 8.3 6.2 9.6 4.6 3-3.5 12.8-18 12.8-19 0-.5-4.6-5.4-10.3-10.8-44.9-43.3-104.9-73.4-162.3-81.5l-8.1-1.1-.6-11.6c-1.4-26-10.4-46.6-27.2-62-4.5-4.1-6.2-6.3-5.4-6.8 2.3-1.4 57.9-1.7 73.6-.5 63.4 5.2 131.5 22.6 187.6 48 3.8 1.7 7 3.1 7.2 3.1.6 0 2.5-7.2 2.5-9.2 0-3.7-27.9-22.2-53.6-35.4-53.5-27.8-111.3-43.8-179.9-49.9-29.3-2.6-75-.8-99.5 3.9-4.1.8-7.8 1.1-8.1.8-.3-.4-1.8-5.7-3.4-11.7-3.7-14.7-12.3-40.8-17.3-52.3l-4-9.3 7.7-3.8c90.9-45.7 209.4-49.4 326.1-10.1 11.3 3.8 23.8 8.3 27.9 10 4.1 1.6 7.6 2.8 7.8 2.6.3-.2-.1-3.9-.8-8l-1.3-7.7-9-5.8c-74.9-48.1-159.1-65.6-253.4-52.6-36 5-80.7 17.5-114.9 32.1-5.8 2.5-10.6 4.4-10.7 4.2-.1-.2-2.1-5.3-4.5-11.3-7.3-18.5-15.2-32.3-29.3-50.8l-5.9-7.8 2.9-3.7c4.3-5.4 18.6-18.9 27.7-26.2 53.9-43 138.6-67.9 235-69.3 18.5-.3 49.2.6 59.3 1.6l4.3.5-5.3-5.7c-2.9-3.1-7.4-7.5-10-9.9-4.6-4.3-4.7-4.4-17.5-6.2-7-1-15.9-2.1-19.8-2.5-3.8-.4-8.1-.9-9.5-1.2-4.9-.9-63.7-1.1-74.5-.2-59.6 4.9-110.1 18.2-160.5 42.2-20.4 9.6-48 26.4-65.8 39.8l-6.3 4.8-8.7-7.1c-11.1-8.9-27.5-19.9-36.4-24.4l-6.9-3.5 2.2-3.7c11.6-19 22.4-32.5 38-47.8 31.1-30.3 70.9-54.9 119.8-73.9 14.1-5.5 37.7-13.3 48.4-16.1 3.4-.8 6.5-1.9 7-2.3.9-.9-24.2-5.6-41.3-7.7-17.8-2.2-63.6-2.7-82.2-.9zM284.6 231.9c25.6 12.6 47 34.7 60.5 62.6 12.7 26.2 16 51.1 9.4 71.2-.3.8-1.8.6-5.3-.7-9-3.4-28.6-8-38.9-9-18.5-1.9-32.3 1.2-42.2 9.6-2.9 2.4-8.8 11.1-8 11.8.2.2 9.2 2 19.9 4 26.4 5 60.7 13.5 79.2 19.7 33.3 11.1 48.4 22.1 43.4 31.7-2.5 4.9-12.5 16.8-26.1 31.2-13.2 13.9-19.8 22.8-21.4 28.6-1.6 5.9.2 9.5 8.5 16.9 9 8.1 12.9 13.6 16 22.4 3.9 11 3.5 13.6-4.1 23.8-7.9 10.6-16.6 27.9-19.7 38.8-2.9 10.7-3.1 26.5-.4 34.5 4.6 13.6 11.4 22.7 23.7 32 21.8 16.4 64.5 30.1 101.7 32.6 5.6.4 10.5 1 10.7 1.4 1.1 1.7-27.9 2.2-129.5 2.2-51.8-.1-65.4-.7-83.2-4.2-39.4-7.6-60.9-22.6-69.9-48.8-3.8-11.2-8.1-50.4-10.1-93.6l-1.2-26.5-12.5-4c-14.9-4.9-27.7-11-31.7-15.2-6.4-6.7-3.7-22.5 7.6-45 9.7-19.4 21.2-36 41-59.9 21.9-26.3 23.4-31.6 11-40-7.6-5.2-10.6-9-12.6-15.7-3.9-13.6 2.5-34.2 16.7-53.3 13.2-18 53.5-64 55.9-64 .8 0 6.1 2.2 11.6 4.9zM489 483.1c11.6 3.1 20.4 8.3 29.6 17.4 14.1 13.9 19.9 27.8 19.9 47.5s-5.8 33.5-20 47.6c-13.3 13.3-28.3 19.5-47 19.5-12 0-19-1.7-30.5-7.3-11.9-5.8-23.8-17.7-29.7-29.8-9.6-19.8-9.7-40.3 0-60 5.3-11 17.6-23.7 28.2-29.2 16.2-8.4 32.2-10.2 49.5-5.7zM1840.5 69.5c-44.9 4.9-81.6 16.2-110.8 34.2-27.7 17.1-52.7 43.7-67.9 72.3-8.8 16.5-15.1 36.8-18.4 58.8-2.3 15.7-1.5 47.3 1.5 61.8 8.4 40.4 29.2 71.8 65.7 98.9 24.8 18.5 54.1 35.4 98 56.4 28.1 13.4 54.6 27.3 67.4 35.3 33.9 21.4 52.8 45.8 59.2 76.8 1.7 8.1 1.9 11.9 1.5 26-.5 14.3-1 17.9-3.6 27.1-9.5 33.3-34.5 57.9-68.6 67.2-10.6 2.9-11.8 3-33 3.1-20 .1-22.9-.1-31.5-2.3-23.1-5.8-36.9-13.3-52.8-28.5-22-21.2-36.5-56.2-49.5-120.1l-2.2-11-23.1-.3-23.1-.2-.6 52.2c-.6 44-1.2 59-3.7 94.2-1.7 23.1-2.7 42.3-2.3 42.7 1.6 1.4 36.5 11.6 54.3 15.7 14.5 3.4 25.3 5.2 50.3 8.3 21.1 2.6 28.8 3 60.2 3.6 29.8.5 39.1.3 54-1.1 76.9-7.3 127.2-28.4 163-68.3 29.9-33.2 46.1-67.2 52.1-108.7 2.2-15.7 1.5-49.9-1.4-65.6-9.8-52.3-35.5-88.5-87.1-122.4-21.7-14.3-43.1-25.9-76.4-41.2-19.2-8.9-51.3-25-61.7-30.9-14.7-8.4-33.2-21.2-40.8-28.1-13.8-12.6-24.4-29.1-29.3-45.9-2.1-7-2.4-10.1-2.4-24 .1-14.7.3-16.7 2.9-25 9.2-29.5 31.1-49.2 63.6-57.3 9.8-2.4 12-2.6 32.5-2.6 21.4.1 22.3.1 34.2 3.2 23.6 6.2 43.9 19 56.4 35.5 14.4 19 27.7 55.5 35.5 96.9l1.8 9.8h45.1V96.9L2043 95c-30.4-8.9-40.2-11.4-58.5-15.4-11.5-2.5-30.9-6-43-7.6-20-2.8-24.9-3.1-55-3.5-24-.3-36.5 0-46 1zM872 98.8v16.7l10.3 1.9c19.1 3.4 47.1 9.8 58.5 13.2 23.1 7 27.1 10.9 30.9 29.8 1.5 7.3 1.7 29.3 2 219.3.4 216.4-.1 267.5-3.1 278.2-3.7 13.2-10.4 17.5-38.7 24.5-16.6 4.2-53.8 11.6-57.9 11.6-1.9 0-2 .8-2 17.2v17.1l21.3-.6c11.6-.4 34.7-1.3 51.2-1.9 40.6-1.7 188.6-1.7 220 0 13.2.6 30.4 1.5 38.3 1.9l14.2.6v-17.1c0-10.9-.4-17.2-1-17.2s-13.1-2-27.8-4.6c-30.2-5.1-49.4-9.4-54.9-12.3-8.9-4.7-13.5-11.9-15.3-24.1-1.8-12.3-3.1-93.3-2.8-172.7l.3-74.2 93 121.5c51.2 66.8 94.7 124.3 96.8 127.7 2 3.4 4.2 7.8 4.7 9.7 2 7.3-2.1 14.9-10.2 19.1-6.9 3.6-37.1 9.9-47.2 9.9h-2.6v34h6.8c3.7 0 21.8-.8 40.2-1.7 48.3-2.5 208.4-2.5 258.1 0 19.1.9 37.6 1.7 41.3 1.7h6.6v-33.5l-19.2-4.9c-32.2-8.1-60.5-17.9-74.8-25.9-21.5-12-44.3-34.6-80-79.2-15.7-19.6-56.2-68.2-79.9-96-26.3-30.6-80-95.1-99-118.7l-14.2-17.8 81.9-83.8c45.1-46.1 87.3-88.7 93.8-94.8 25.1-23.2 40.9-34.9 54.6-40.4 12.4-4.9 52-13.7 74.6-16.6l5.2-.7v-34l-13.2.7c-7.3.3-22.3 1.2-33.3 1.9-31.2 1.9-149.4 1.5-187.8-.6-17-.9-32.9-1.7-35.3-1.7h-4.4v33.7l4.3.7c11.4 1.8 51.7 11 55.4 12.6 8 3.5 10.2 11.5 5.7 20.3-15.3 29.8-80.1 102.2-185.8 207.7l-36.6 36.5.1-45.5c.1-25 .5-77.5.9-116.5.8-73.9 1-76.8 5.3-85.1.9-1.7 3.2-4.6 5.2-6.6 7-6.8 12.1-8.4 52.3-16.7l37.7-7.7.3-16.7.2-16.7h-6.3c-3.6 0-21 .8-38.8 1.7-46.9 2.5-203.5 2.5-252.5 0-18.8-.9-37.1-1.7-40.8-1.7H872v16.8zM2120.2 98.7l.3 16.8 28.1 5.6c32.5 6.5 53 11.9 59.1 15.4 4.9 2.9 9.3 8.9 11.6 15.7 5.2 15.1 5.9 57.3 5.4 292.8-.3 179.3-.5 199.2-2 205.4-4.5 18.9-12.4 25.4-39.2 32.2-11 2.7-59.8 12.4-62.8 12.4-.4 0-.7 7.4-.7 16.5V728h8.8c4.8 0 25.8-.7 46.7-1.5 64.6-2.6 125.1-2.9 176.5-1 125.2 4.6 161.9 2.9 215-9.6 86.2-20.4 165.9-76.8 214.1-151.4C2820.3 503.9 2839 437 2839 358c0-40.9-3.5-69.3-12.3-101-15.9-57-54.6-107.7-105-137.8-37.4-22.3-72.4-32.3-126.7-36.3-19.7-1.4-116-.7-162 1.2-47.7 2.1-217.4 1.8-264.2-.4-20.8-.9-40.2-1.7-43.3-1.7h-5.5l.2 16.7zm387.6 36.9c28.6 3.3 50.5 9.4 72.2 20.1 20.5 10.2 34.2 21.3 48.9 39.3 36.7 45 54 105.9 54.1 190 0 82.9-14.9 148.2-45.5 198.9-28.3 47.2-66 74.6-118 86.1-23.3 5.1-37.5 6.3-69 5.7-27.8-.5-41.8-1.8-72.5-6.5l-11.5-1.8-.6-20.2c-3.1-97.4-3.4-119.1-3.4-265.7 0-145.8.4-169.4 3.1-226l.7-13.1 17.6-2.2c16.5-2.1 43.4-4.8 54.6-5.5 16.3-1.1 56.7-.6 69.3.9zM2913.6 105.6c-1.5 55.2-3.1 78.1-8.7 128.5-2.1 19.6-3.9 36.4-3.9 37.3 0 1.5 2.1 1.6 20.6 1.4l20.6-.3 5.9-19.5c11.9-39.2 22.4-69.1 28.9-82 8.1-16.2 18.4-24.2 34.5-27 10.6-1.8 40.1-2.9 78.8-3h34.7v242.2c0 153.1-.4 247.8-1 257.3-.9 13.3-1.4 15.7-4 21.3-4.6 9.8-9.4 13.2-24.5 17.6-9.2 2.7-58.7 13-68.2 14.2l-5.3.7V728h6c3.4 0 23-.8 43.8-1.7 52-2.4 172.1-2.4 234.4 0 24.6.9 47.9 1.7 51.8 1.7h7v-33.5l-23.2-4.4c-41.3-7.7-56.6-11.7-62.9-16.3-8.4-6.1-10.9-13.8-13-40.3-.8-10.6-1.3-84.8-1.6-253.9l-.5-238.9 43.4.7c44.5.7 66.2 1.8 75.8 3.7 10.8 2.1 22.1 11.3 27.9 22.6 4.1 8.2 17.3 44.9 30.1 84.3l6.7 20.5 21.1.3 21.2.2v-2.2c0-1.3-1.1-11.7-2.5-23.2-5.6-46.8-10.5-115.7-10.5-148.4V81.7l-22.2.7c-77 2.2-133.6 2.9-244.8 2.9-111.9 0-150.3-.4-265.1-2.9l-30.6-.7-.7 23.9z"/></svg>