<?xml version="1.0" standalone="no"?>
<!DOCTYPE svg PUBLIC "-//W3C//DTD SVG 20010904//EN"
 "http://www.w3.org/TR/2001/REC-SVG-20010904/DTD/svg10.dtd">
<svg version="1.0" xmlns="http://www.w3.org/2000/svg"
 width="920.000000pt" height="884.000000pt" viewBox="0 0 920.000000 884.000000"
 preserveAspectRatio="xMidYMid meet">

<g transform="translate(0.000000,884.000000) scale(0.100000,-0.100000)"
fill="#000000" stroke="none">
<path d="M3980 8454 c-19 -2 -87 -9 -150 -15 -594 -56 -1222 -274 -1735 -602
-1284 -823 -1985 -2275 -1830 -3788 92 -897 478 -1720 1110 -2368 393 -403
821 -695 1336 -912 346 -145 809 -260 1154 -284 50 -4 101 -9 115 -11 63 -10
499 -3 641 11 390 37 755 126 1112 269 160 64 368 166 374 183 8 21 -63 257
-123 408 -165 415 -413 755 -671 918 -45 29 -82 55 -83 58 0 3 26 23 57 44
118 79 249 224 324 361 l41 74 41 -6 c607 -86 1166 -312 1619 -654 106 -80
118 -87 131 -72 30 36 127 181 127 190 0 16 -197 200 -310 291 -420 335 -937
566 -1411 631 l-86 12 -6 116 c-14 261 -104 466 -273 621 -37 34 -64 65 -60
69 10 10 667 9 791 -1 570 -46 1212 -210 1769 -451 72 -31 131 -56 132 -56 5
0 24 74 24 92 0 56 -498 354 -812 487 -284 120 -600 217 -914 280 -372 75
-655 101 -1024 96 -287 -5 -301 -6 -495 -36 -71 -11 -138 -21 -149 -22 -16 -2
-24 17 -53 128 -44 166 -120 394 -171 513 l-40 93 121 59 c768 371 1707 450
2702 226 242 -54 564 -154 784 -242 47 -19 86 -32 89 -30 2 3 -2 38 -8 80
l-13 76 -91 58 c-404 260 -854 438 -1311 516 -261 45 -628 64 -896 46 -480
-33 -1027 -164 -1476 -356 -58 -25 -106 -44 -107 -42 -2 2 -13 32 -26 68 -60
171 -174 372 -312 553 l-59 78 31 39 c50 63 217 216 320 294 495 373 1178 590
2045 650 230 16 728 11 860 -9 l40 -6 -101 101 -101 102 -169 23 c-234 33
-380 42 -659 42 -362 0 -599 -23 -941 -92 -602 -122 -1162 -369 -1658 -733
l-68 -50 -87 70 c-109 88 -273 199 -363 244 -46 23 -66 39 -62 47 230 395 589
730 1066 996 286 159 705 328 1010 406 77 20 90 30 46 38 -18 3 -82 15 -143
26 -217 39 -373 53 -655 56 -151 2 -291 1 -310 -1z m-1144 -2053 c255 -126
470 -348 605 -626 127 -262 160 -512 94 -712 -3 -9 -12 -9 -39 2 -73 31 -307
86 -404 95 -231 22 -403 -38 -478 -167 -15 -24 -25 -45 -23 -47 2 -1 92 -19
199 -40 265 -50 605 -135 791 -196 333 -110 485 -222 435 -318 -26 -50 -126
-169 -261 -312 -188 -199 -242 -291 -212 -362 8 -18 46 -62 86 -96 86 -77 126
-133 157 -221 39 -110 35 -136 -41 -238 -79 -106 -167 -279 -197 -388 -26 -96
-30 -253 -9 -330 78 -277 361 -474 851 -594 160 -39 279 -58 408 -67 112 -7
147 -23 55 -25 -32 -1 -71 -3 -88 -4 -16 -2 -399 -4 -850 -5 -849 -2 -935 1
-1138 40 -272 53 -445 135 -570 270 -67 72 -109 150 -136 252 -38 142 -73 486
-93 902 l-12 265 -125 40 c-149 49 -277 110 -316 151 -123 128 84 573 488
1053 215 256 230 313 107 397 -76 52 -106 90 -126 157 -39 134 25 343 163 528
140 189 539 645 563 645 8 0 61 -22 116 -49z m2044 -2512 c217 -58 395 -228
466 -445 25 -77 29 -104 29 -204 0 -197 -58 -335 -200 -476 -130 -130 -282
-194 -461 -195 -123 -1 -191 14 -304 68 -180 86 -321 264 -364 460 -32 147
-13 301 57 443 53 110 176 237 282 292 162 84 322 102 495 57z"/>
</g>
</svg>
