<?xml version="1.0" standalone="no"?>
<!DOCTYPE svg PUBLIC "-//W3C//DTD SVG 20010904//EN"
 "http://www.w3.org/TR/2001/REC-SVG-20010904/DTD/svg10.dtd">
<svg version="1.0" xmlns="http://www.w3.org/2000/svg"
 width="3544.000000pt" height="868.000000pt" viewBox="0 0 3544.000000 868.000000"
 preserveAspectRatio="xMidYMid meet">

<g transform="translate(0.000000,868.000000) scale(0.100000,-0.100000)"
fill="#000000" stroke="none">
<path id="logo_idI"  d="M3888 8405 c-971 -93 -1834 -507 -2513 -1207 -627 -646 -1017 -1492
-1106 -2403 -16 -165 -16 -583 0 -740 95 -936 476 -1760 1116 -2414 208 -213
384 -362 605 -513 495 -338 1006 -545 1600 -647 101 -17 193 -28 390 -46 96
-9 490 -6 605 5 422 39 764 119 1140 267 131 52 369 163 389 183 20 20 -78
327 -170 533 -64 144 -176 338 -263 455 -113 152 -333 353 -425 388 -26 10
-19 19 41 59 118 79 249 224 324 361 23 41 44 74 47 74 32 0 285 -48 397 -75
255 -61 466 -136 695 -246 229 -110 417 -226 596 -365 75 -58 83 -62 96 -46
30 35 128 180 128 190 0 5 -46 54 -103 108 -449 433 -1049 734 -1623 815 l-81
11 -6 116 c-14 260 -104 466 -272 620 -45 41 -62 63 -54 68 23 14 579 17 736
5 634 -52 1315 -226 1876 -480 38 -17 70 -31 72 -31 6 0 25 72 25 92 0 37
-279 222 -536 354 -535 278 -1113 438 -1799 499 -293 26 -750 8 -995 -39 -41
-8 -78 -11 -81 -8 -3 4 -18 57 -34 117 -37 147 -123 408 -173 523 l-40 93 77
38 c909 457 2094 494 3261 101 113 -38 238 -83 279 -100 41 -16 76 -28 78 -26
3 2 -1 39 -8 80 l-13 77 -90 58 c-749 481 -1591 656 -2534 526 -360 -50 -807
-175 -1149 -321 -58 -25 -106 -44 -107 -42 -1 2 -21 53 -45 113 -73 185 -152
323 -293 508 l-59 78 29 37 c43 54 186 189 277 262 539 430 1386 679 2350 693
185 3 492 -6 593 -16 l43 -5 -53 57 c-29 31 -74 75 -100 99 -46 43 -47 44
-175 62 -70 10 -159 21 -198 25 -38 4 -81 9 -95 12 -49 9 -637 11 -745 2 -596
-49 -1101 -182 -1605 -422 -204 -96 -480 -264 -658 -398 l-63 -48 -87 71
c-111 89 -275 199 -364 244 l-69 35 22 37 c116 190 224 325 380 478 311 303
709 549 1198 739 141 55 377 133 484 161 34 8 65 19 70 23 9 9 -242 56 -413
77 -178 22 -636 27 -822 9z m-1042 -2044 c256 -126 470 -347 605 -626 127
-262 160 -511 94 -712 -3 -8 -18 -6 -53 7 -90 34 -286 80 -389 90 -185 19
-323 -12 -422 -96 -29 -24 -88 -111 -80 -118 2 -2 92 -20 199 -40 264 -50 607
-135 792 -197 333 -111 484 -221 434 -317 -25 -49 -125 -168 -261 -312 -132
-139 -198 -228 -214 -286 -16 -59 2 -95 85 -169 90 -81 129 -136 160 -224 39
-110 35 -136 -41 -238 -79 -106 -166 -279 -197 -388 -29 -107 -31 -265 -4
-345 46 -136 114 -227 237 -320 218 -164 645 -301 1017 -326 56 -4 105 -10
107 -14 11 -17 -279 -22 -1295 -22 -518 1 -654 7 -832 42 -394 76 -609 226
-699 488 -38 112 -81 504 -101 936 l-12 265 -125 40 c-149 49 -277 110 -317
152 -64 67 -37 225 76 450 97 194 212 360 410 599 219 263 234 316 110 400
-76 52 -106 90 -126 157 -39 136 25 342 167 533 132 180 535 640 559 640 8 0
61 -22 116 -49z m2044 -2512 c116 -31 204 -83 296 -174 141 -139 199 -278 199
-475 0 -197 -58 -335 -200 -476 -133 -133 -283 -195 -470 -195 -120 0 -190 17
-305 73 -119 58 -238 177 -297 298 -96 198 -97 403 0 600 53 110 176 237 282
292 162 84 322 102 495 57z"/>
<path id="logo_idK" d="M18405 7985 c-449 -49 -816 -162 -1108 -342 -277 -171 -527 -437
-679 -723 -88 -165 -151 -368 -184 -588 -23 -157 -15 -473 15 -618 84 -404
292 -718 657 -989 248 -185 541 -354 980 -564 281 -134 546 -273 674 -353 339
-214 528 -458 592 -768 17 -81 19 -119 15 -260 -5 -143 -10 -179 -36 -271 -95
-333 -345 -579 -686 -672 -106 -29 -118 -30 -330 -31 -200 -1 -229 1 -315 23
-231 58 -369 133 -528 285 -220 212 -365 562 -495 1201 l-22 110 -231 3 -231
2 -6 -522 c-6 -440 -12 -590 -37 -942 -17 -231 -27 -423 -23 -427 16 -14 365
-116 543 -157 145 -34 253 -52 503 -83 211 -26 288 -30 602 -36 298 -5 391 -3
540 11 769 73 1272 284 1630 683 299 332 461 672 521 1087 22 157 15 499 -14
656 -98 523 -355 885 -871 1224 -217 143 -431 259 -764 412 -192 89 -513 250
-617 309 -147 84 -332 212 -408 281 -138 126 -244 291 -293 459 -21 70 -24
101 -24 240 1 147 3 167 29 250 92 295 311 492 636 573 98 24 120 26 325 26
214 -1 223 -1 342 -32 236 -62 439 -190 564 -355 144 -190 277 -555 355 -969
l18 -98 225 0 226 0 0 845 0 846 -65 19 c-304 89 -402 114 -585 154 -115 25
-309 60 -430 76 -200 28 -249 31 -550 35 -240 3 -365 0 -460 -10z"/>
<path id="logo_idS"  d="M8720 7692 l0 -167 103 -19 c191 -34 471 -98 585 -132 231 -70 271
-109 309 -298 15 -73 17 -293 20 -2193 4 -2164 -1 -2675 -31 -2782 -37 -132
-104 -175 -387 -245 -166 -42 -538 -116 -579 -116 -19 0 -20 -8 -20 -172 l0
-171 213 6 c116 4 347 13 512 19 406 17 1886 17 2200 0 132 -6 304 -15 383
-19 l142 -6 0 171 c0 109 -4 172 -10 172 -6 0 -131 20 -278 46 -302 51 -494
94 -549 123 -89 47 -135 119 -153 241 -18 123 -31 933 -28 1727 l3 742 930
-1215 c512 -668 947 -1243 968 -1277 20 -34 42 -78 47 -97 20 -73 -21 -149
-102 -191 -69 -36 -371 -99 -472 -99 l-26 0 0 -170 0 -170 68 0 c37 0 218 8
402 17 483 25 2084 25 2581 0 191 -9 376 -17 413 -17 l66 0 0 168 0 167 -192
49 c-322 81 -605 179 -748 259 -215 120 -443 346 -800 792 -157 196 -562 682
-799 960 -263 306 -800 951 -990 1187 l-142 178 819 838 c451 461 873 887 938
948 251 232 409 349 546 404 124 49 520 137 746 166 l52 7 0 170 0 170 -132
-7 c-73 -3 -223 -12 -333 -19 -312 -19 -1494 -15 -1878 6 -170 9 -329 17 -353
17 l-44 0 0 -169 0 -168 43 -7 c114 -18 517 -110 554 -126 80 -35 102 -115 57
-203 -153 -298 -801 -1022 -1858 -2077 l-366 -365 1 455 c1 250 5 775 9 1165
8 739 10 768 53 851 9 17 32 46 52 66 70 68 121 84 523 167 l377 77 3 167 2
167 -63 0 c-36 0 -210 -8 -388 -17 -469 -25 -2035 -25 -2525 0 -188 9 -371 17
-408 17 l-66 0 0 -168z"/>
<path id="logo_idD"  d="M21202 7693 l3 -168 281 -56 c325 -65 530 -119 591 -154 49 -29 93
-89 116 -157 52 -151 59 -573 54 -2928 -3 -1793 -5 -1992 -20 -2054 -45 -189
-124 -254 -392 -322 -110 -27 -598 -124 -628 -124 -4 0 -7 -74 -7 -165 l0
-165 88 0 c48 0 258 7 467 15 646 26 1251 29 1765 10 1252 -46 1619 -29 2150
96 862 204 1659 768 2141 1514 392 606 579 1275 579 2065 0 409 -35 693 -123
1010 -159 570 -546 1077 -1050 1378 -374 223 -724 323 -1267 363 -197 14
-1160 7 -1620 -12 -477 -21 -2174 -18 -2642 4 -208 9 -402 17 -433 17 l-55 0
2 -167z m3876 -369 c286 -33 505 -94 722 -201 205 -102 342 -213 489 -393 367
-450 540 -1059 541 -1900 0 -829 -149 -1482 -455 -1989 -283 -472 -660 -746
-1180 -861 -233 -51 -375 -63 -690 -57 -278 5 -418 18 -725 65 l-115 18 -6
202 c-31 974 -34 1191 -34 2657 0 1458 4 1694 31 2260 l7 131 176 22 c165 21
434 48 546 55 163 11 567 6 693 -9z"/>
<path id="logo_idT" d="M29136 7624 c-15 -552 -31 -781 -87 -1285 -21 -196 -39 -364 -39
-373 0 -15 21 -16 206 -14 l206 3 59 195 c119 392 224 691 289 820 81 162 184
242 345 270 106 18 401 29 788 30 l347 0 0 -2422 c0 -1531 -4 -2478 -10 -2573
-9 -133 -14 -157 -40 -213 -46 -98 -94 -132 -245 -176 -92 -27 -587 -130 -682
-142 l-53 -7 0 -168 0 -169 60 0 c34 0 230 8 438 17 520 24 1721 24 2344 0
246 -9 479 -17 518 -17 l70 0 0 168 0 167 -232 44 c-413 77 -566 117 -629 163
-84 61 -109 138 -130 403 -8 106 -13 848 -16 2539 l-5 2389 434 -7 c445 -7
662 -18 758 -37 108 -21 221 -113 279 -226 41 -82 173 -449 301 -843 l67 -205
211 -3 212 -2 0 22 c0 13 -11 117 -25 232 -56 468 -105 1157 -105 1484 l0 175
-222 -7 c-770 -22 -1336 -29 -2448 -29 -1119 0 -1503 4 -2651 29 l-306 7 -7
-239z"/>
</g>
</svg>
