<?xml version="1.0" standalone="no"?>
<!DOCTYPE svg PUBLIC "-//W3C//DTD SVG 20010904//EN"
 "http://www.w3.org/TR/2001/REC-SVG-20010904/DTD/svg10.dtd">
<svg version="1.0" xmlns="http://www.w3.org/2000/svg"
 width="3016.000000pt" height="1068.000000pt" viewBox="0 0 3016.000000 1068.000000"
 preserveAspectRatio="xMidYMid meet">

<g transform="translate(0.000000,1068.000000) scale(0.100000,-0.100000)"
fill="#000000" stroke="none">
<path d="M4180 10054 c-730 -63 -1313 -254 -1885 -618 -457 -290 -859 -681
-1163 -1129 -943 -1392 -917 -3213 67 -4582 256 -356 615 -707 981 -957 529
-361 1065 -568 1725 -667 190 -28 584 -41 814 -26 507 33 1072 187 1501 409
82 43 85 46 83 78 -1 18 -18 86 -37 150 -156 515 -447 958 -753 1151 -46 29
-83 55 -83 58 0 3 26 23 57 44 118 79 249 224 324 361 23 41 45 74 49 74 5 0
73 -11 152 -24 553 -94 1058 -308 1500 -637 106 -78 118 -85 131 -70 30 35
127 180 127 189 0 16 -197 200 -310 291 -421 336 -941 568 -1413 631 -43 5
-80 10 -81 10 -2 0 -6 53 -9 118 -14 261 -104 466 -273 621 -37 34 -64 64 -61
68 13 12 576 16 734 4 624 -47 1322 -225 1886 -480 38 -17 70 -31 72 -31 6 0
25 72 25 92 0 52 -483 346 -780 473 -510 220 -1038 344 -1645 386 -287 20
-662 1 -906 -45 -41 -8 -77 -12 -80 -10 -4 2 -10 21 -14 41 -24 132 -138 481
-205 630 l-28 62 76 39 c880 456 2101 494 3262 102 113 -38 238 -83 279 -100
41 -16 76 -28 78 -26 3 2 -1 39 -8 80 l-12 76 -116 73 c-364 229 -712 375
-1111 465 -283 65 -549 91 -865 87 -574 -9 -1185 -142 -1716 -375 -39 -17 -72
-30 -73 -28 -1 2 -21 53 -45 113 -71 181 -155 326 -293 508 l-59 78 31 39 c49
62 216 216 317 291 397 299 909 497 1543 599 221 35 393 50 761 65 126 5 587
-11 624 -22 21 -6 -46 70 -136 154 -46 42 -51 45 -146 59 -233 35 -378 46
-663 49 -408 5 -638 -16 -1006 -90 -599 -121 -1200 -388 -1662 -736 l-64 -48
-86 70 c-110 89 -274 200 -364 245 -46 23 -66 39 -62 47 229 393 578 720 1058
992 276 156 746 345 1039 416 59 14 67 25 24 32 -17 3 -70 13 -117 22 -223 42
-384 56 -665 59 -154 2 -300 2 -325 0z m-1144 -2053 c253 -125 472 -351 605
-626 127 -262 160 -512 94 -712 -3 -9 -12 -9 -39 2 -19 8 -83 28 -143 44 -316
86 -524 74 -672 -36 -29 -23 -91 -106 -91 -124 0 -4 21 -10 48 -14 103 -15
358 -69 568 -120 590 -145 877 -294 810 -423 -25 -49 -125 -169 -247 -297
-170 -179 -207 -230 -230 -309 -15 -51 6 -89 87 -161 90 -81 129 -136 160
-224 39 -110 35 -136 -41 -238 -78 -105 -167 -279 -194 -382 -103 -377 78
-655 544 -839 190 -75 497 -145 693 -157 123 -8 160 -24 60 -26 -35 -1 -76 -3
-93 -4 -16 -2 -399 -4 -850 -5 -558 -1 -852 2 -920 10 -533 60 -810 220 -908
525 -38 117 -79 506 -99 930 l-12 264 -125 40 c-149 49 -277 110 -317 152 -64
67 -37 225 76 450 96 190 190 330 372 551 261 316 276 361 148 448 -76 52
-106 90 -126 157 -39 136 25 342 167 533 132 179 535 640 559 640 8 0 61 -22
116 -49z m2062 -2516 c201 -58 381 -235 449 -439 37 -113 39 -285 5 -396 -36
-116 -85 -195 -177 -286 -134 -133 -283 -195 -470 -195 -120 0 -191 17 -305
73 -119 58 -238 177 -297 298 -96 198 -97 403 0 600 76 157 242 296 412 346
117 34 262 34 383 -1z"/>
<path d="M9930 7185 l0 -2835 595 0 595 0 2 930 3 930 610 -926 c335 -510 614
-928 620 -930 5 -2 337 -3 736 -2 l727 3 -779 1020 c-428 561 -778 1022 -778
1025 0 3 318 388 708 855 l707 850 -669 3 c-399 1 -674 -2 -681 -7 -6 -5 -279
-358 -606 -784 l-595 -775 -3 1739 -2 1739 -595 0 -595 0 0 -2835z"/>
<path d="M20260 7185 l0 -2835 590 0 590 0 2 930 3 931 153 -233 c85 -128 360
-546 611 -928 l458 -695 738 -3 c591 -2 736 0 728 10 -11 14 -1392 1824 -1491
1955 l-63 83 709 852 709 853 -666 3 c-366 1 -671 0 -677 -2 -6 -2 -280 -355
-610 -784 l-599 -781 -3 1740 -2 1739 -590 0 -590 0 0 -2835z"/>
<path d="M18022 9762 c-10 -24 -9 -959 1 -969 10 -9 1116 -15 1160 -6 l27 5 0
488 0 488 -32 6 c-18 3 -283 6 -590 6 -519 -1 -559 -2 -566 -18z"/>
<path d="M15575 8193 c-524 -39 -993 -241 -1223 -527 -147 -183 -222 -407
-222 -666 0 -318 112 -589 307 -742 202 -158 415 -255 733 -334 640 -157 820
-264 820 -486 0 -230 -181 -343 -565 -352 -171 -4 -377 15 -533 50 -109 24
-411 120 -580 185 l-72 27 -5 -21 c-8 -43 -74 -871 -69 -878 8 -13 146 -54
294 -87 134 -31 321 -61 515 -83 129 -14 694 -20 805 -9 462 50 809 180 1058
398 227 197 352 490 352 822 0 393 -149 697 -437 890 -164 110 -348 184 -675
270 -365 97 -564 162 -654 215 -54 32 -109 93 -124 140 -16 47 -8 121 19 173
44 86 138 143 295 179 102 23 480 23 629 0 239 -37 429 -89 575 -157 45 -21
82 -38 82 -37 4 14 77 853 76 855 -8 7 -293 76 -426 102 -261 50 -452 71 -700
74 -124 2 -247 1 -275 -1z"/>
<path d="M26220 8193 c-116 -8 -305 -38 -405 -63 -745 -188 -1249 -767 -1349
-1552 -61 -480 2 -935 180 -1291 277 -556 819 -904 1564 -1004 191 -26 759
-25 970 1 262 32 584 101 770 164 l55 19 3 441 c1 243 0 442 -3 442 -3 0 -24
-9 -46 -20 -58 -30 -406 -144 -529 -174 -254 -61 -441 -80 -719 -73 -226 5
-327 20 -472 67 -252 83 -416 216 -519 421 -38 75 -110 268 -110 295 0 12 199
14 1356 14 l1357 0 -7 188 c-24 636 -139 1059 -394 1442 -273 409 -698 632
-1296 680 -120 9 -301 11 -406 3z m485 -822 c314 -83 496 -322 522 -683 l6
-88 -817 0 c-770 0 -816 1 -816 18 0 9 11 59 25 110 99 360 313 587 619 657
94 22 358 14 461 -14z"/>
<path d="M18020 6230 l0 -1880 593 0 592 0 -2 1862 c-2 1025 -3 1871 -3 1881
0 16 -35 17 -590 17 l-590 0 0 -1880z"/>
<path d="M14713 3499 l-33 -10 0 -730 c0 -685 1 -730 18 -737 9 -4 63 -7 120
-7 91 0 105 2 118 19 12 17 14 132 14 725 0 388 -4 711 -8 718 -20 31 -153 44
-229 22z"/>
<path d="M10087 3404 c-46 -14 -47 -23 -47 -689 0 -676 0 -675 52 -689 13 -3
122 -6 243 -6 399 0 555 45 699 201 106 114 156 265 162 484 8 368 -141 592
-453 677 -69 19 -109 21 -358 24 -154 1 -288 0 -298 -2z m578 -244 c82 -32
172 -122 203 -203 33 -87 47 -218 34 -325 -24 -200 -94 -306 -243 -364 -43
-17 -84 -22 -196 -26 l-143 -5 0 478 0 478 143 -5 c116 -4 153 -9 202 -28z"/>
<path d="M22809 3388 c-7 -13 -12 -54 -12 -93 0 -119 -7 -115 203 -115 l180 0
0 -564 c0 -633 -6 -589 76 -602 58 -8 164 0 192 15 l22 12 0 569 0 570 179 0
c214 0 206 -4 206 115 0 55 -5 87 -14 98 -12 15 -61 17 -517 17 l-503 0 -12
-22z"/>
<path d="M21745 3303 c-42 -11 -45 -21 -45 -139 l0 -114 -65 0 c-79 0 -85 -8
-85 -110 0 -102 6 -110 85 -110 l65 0 0 -268 c0 -150 5 -294 11 -328 31 -169
145 -246 341 -231 87 7 141 26 157 55 13 25 14 161 1 182 -7 12 -16 13 -55 2
-62 -16 -106 -15 -134 4 -46 33 -51 65 -51 334 l0 250 115 0 c115 0 116 0 125
26 13 34 13 150 0 175 -10 17 -22 19 -125 19 l-115 0 0 114 c0 93 -3 116 -17
127 -16 14 -168 23 -208 12z"/>
<path d="M11716 3055 c-168 -43 -284 -160 -332 -336 -21 -79 -28 -232 -15
-317 32 -203 124 -320 294 -374 136 -42 375 -31 515 25 70 27 84 51 79 134 -4
89 -11 93 -105 61 -188 -65 -339 -64 -433 2 -38 28 -76 108 -81 170 l-3 45
313 5 314 5 19 24 c25 31 26 173 2 268 -32 129 -136 242 -258 279 -73 22 -236
27 -309 9z m224 -197 c55 -28 89 -85 97 -163 l6 -55 -205 0 -205 0 8 46 c25
130 89 192 204 193 34 1 66 -7 95 -21z"/>
<path d="M13866 3055 c-168 -43 -284 -160 -332 -336 -21 -79 -28 -232 -15
-317 32 -203 124 -320 294 -374 133 -42 366 -32 510 22 75 28 82 39 82 126 0
101 -6 105 -103 72 -108 -38 -190 -51 -277 -46 -150 10 -224 80 -237 228 l-3
35 311 5 c377 6 354 -3 354 133 0 227 -101 390 -275 443 -73 22 -236 27 -309
9z m224 -197 c55 -28 89 -85 97 -163 l6 -55 -205 0 -205 0 8 43 c17 94 50 145
111 176 58 28 130 28 188 -1z"/>
<path d="M15575 3064 c-229 -48 -356 -170 -401 -384 -22 -102 -14 -289 15
-380 42 -134 139 -230 276 -273 85 -27 278 -31 360 -8 238 67 360 254 354 545
-5 285 -118 441 -356 491 -63 14 -201 18 -248 9z m208 -229 c79 -38 117 -133
117 -295 0 -138 -18 -201 -74 -256 -49 -50 -106 -68 -188 -61 -138 12 -201
114 -200 322 1 160 53 266 147 301 52 18 148 13 198 -11z"/>
<path d="M16877 3059 c-55 -13 -126 -52 -189 -103 -31 -25 -59 -46 -63 -46 -3
0 -5 27 -4 60 1 36 -3 66 -10 73 -16 16 -149 22 -183 8 l-28 -11 0 -694 0
-695 38 -10 c64 -18 193 -11 224 12 1 1 5 107 8 234 l5 233 43 -35 c83 -65
126 -80 232 -80 83 1 103 4 157 29 69 31 147 106 181 172 46 90 64 174 68 309
6 223 -42 374 -147 469 -81 73 -214 103 -332 75z m94 -242 c41 -28 75 -77 91
-131 16 -54 16 -240 1 -291 -29 -97 -103 -165 -177 -165 -55 0 -99 23 -160 82
l-56 54 0 166 0 166 48 50 c82 88 184 116 253 69z"/>
<path d="M18033 3056 c-58 -19 -129 -62 -180 -109 l-43 -40 0 55 c0 80 -13 92
-102 96 -40 2 -85 -1 -100 -7 l-28 -11 0 -504 0 -504 36 -12 c46 -15 196 -9
218 9 14 12 16 55 16 341 l0 327 53 50 c29 28 67 58 85 67 65 33 144 12 183
-50 24 -39 24 -41 29 -381 4 -251 8 -345 17 -354 18 -18 172 -24 217 -9 l36
12 0 327 0 327 58 56 c74 73 112 92 171 85 54 -6 103 -52 120 -114 7 -23 11
-161 11 -354 0 -282 2 -318 17 -330 21 -18 165 -25 215 -10 l38 12 0 352 c0
264 -4 369 -14 418 -27 124 -76 191 -174 237 -49 23 -70 27 -147 27 -80 0 -97
-3 -155 -31 -36 -17 -92 -53 -124 -80 -43 -35 -61 -45 -64 -35 -11 33 -86 100
-134 121 -66 28 -194 36 -255 16z"/>
<path d="M19666 3055 c-168 -43 -284 -160 -332 -336 -21 -79 -28 -232 -15
-317 32 -203 124 -320 294 -374 133 -42 366 -32 510 22 75 28 82 39 82 126 0
101 -6 105 -103 72 -187 -65 -339 -64 -431 1 -36 26 -77 109 -85 174 l-6 47
311 0 310 0 26 26 c25 25 25 27 20 137 -6 129 -28 205 -82 279 -41 56 -122
113 -191 134 -71 22 -236 27 -308 9z m224 -197 c55 -28 89 -85 97 -163 l6 -55
-205 0 -205 0 9 52 c17 93 58 149 129 177 44 18 122 12 169 -11z"/>
<path d="M20928 3051 c-68 -22 -119 -53 -175 -105 l-43 -39 0 55 c0 80 -13 92
-102 96 -40 2 -85 -1 -100 -7 l-28 -11 0 -505 c0 -472 1 -506 18 -513 32 -13
218 -8 235 7 15 12 17 49 17 341 l0 327 55 52 c30 29 70 58 90 66 81 34 162 6
200 -70 18 -37 20 -66 25 -375 l5 -334 25 -14 c33 -17 200 -12 223 7 15 12 17
49 17 350 0 344 -7 434 -39 507 -27 60 -85 120 -147 150 -73 36 -194 43 -276
15z"/>
<path d="M24306 3055 c-168 -43 -284 -160 -332 -336 -21 -79 -28 -232 -15
-317 32 -203 124 -320 294 -374 133 -42 366 -32 510 22 75 28 82 39 82 126 0
101 -6 105 -103 72 -187 -65 -339 -64 -431 1 -36 26 -77 109 -85 174 l-6 47
311 0 310 0 26 26 c25 25 25 27 20 137 -6 129 -28 205 -82 279 -41 56 -122
113 -191 134 -71 22 -236 27 -308 9z m224 -197 c55 -28 89 -85 97 -163 l6 -55
-205 0 -205 0 9 52 c17 93 58 149 129 177 44 18 122 12 169 -11z"/>
<path d="M25405 3063 c-119 -19 -241 -67 -273 -108 -35 -45 -27 -166 13 -181
8 -3 53 10 100 29 106 45 187 61 271 54 107 -8 154 -60 154 -169 l0 -58 -99 0
c-177 0 -340 -40 -414 -101 -62 -51 -90 -110 -95 -199 -5 -95 13 -159 64 -219
120 -140 396 -148 553 -16 l31 27 0 -46 c0 -41 3 -48 28 -57 32 -13 167 -8
182 7 14 14 14 735 0 798 -36 162 -149 235 -375 241 -60 2 -123 1 -140 -2z
m265 -682 l0 -78 -46 -42 c-25 -24 -61 -49 -79 -57 -67 -28 -157 -12 -198 34
-27 30 -33 92 -13 134 30 62 95 85 244 87 l92 1 0 -79z"/>
<path d="M26663 3056 c-58 -19 -129 -62 -180 -109 l-43 -40 0 61 c0 43 -5 63
-16 73 -21 17 -150 24 -186 10 l-28 -11 0 -504 0 -504 36 -12 c46 -15 196 -9
218 9 14 12 16 55 16 341 l0 327 53 50 c29 28 67 58 85 67 65 33 144 12 183
-50 24 -39 24 -41 29 -381 4 -251 8 -345 17 -354 18 -18 172 -24 217 -9 l36
12 0 327 0 327 58 56 c74 73 112 92 171 85 54 -6 103 -52 120 -114 7 -23 11
-161 11 -354 0 -282 2 -318 17 -330 21 -18 165 -25 215 -10 l38 12 0 355 c0
392 -6 446 -60 540 -53 94 -174 151 -301 142 -83 -6 -170 -45 -253 -114 -43
-35 -61 -45 -64 -35 -11 33 -86 100 -134 121 -66 28 -194 36 -255 16z"/>
<path d="M12440 3047 c-20 -11 -24 -20 -22 -48 4 -53 302 -941 323 -964 16
-17 36 -20 146 -23 89 -3 140 0 168 10 l39 13 153 465 c85 256 155 480 156
499 3 51 -25 63 -141 58 -64 -2 -96 -7 -106 -17 -7 -8 -62 -177 -122 -375 -59
-198 -110 -363 -113 -367 -3 -4 -31 77 -63 180 -124 411 -168 547 -183 561
-21 21 -200 28 -235 8z"/>
</g>
</svg>
