<?xml version="1.0" encoding="UTF-8" standalone="no"?>
<svg
   xmlns:dc="http://purl.org/dc/elements/1.1/"
   xmlns:cc="http://creativecommons.org/ns#"
   xmlns:rdf="http://www.w3.org/1999/02/22-rdf-syntax-ns#"
   xmlns:svg="http://www.w3.org/2000/svg"
   xmlns="http://www.w3.org/2000/svg"
   xmlns:sodipodi="http://sodipodi.sourceforge.net/DTD/sodipodi-0.dtd"
   xmlns:inkscape="http://www.inkscape.org/namespaces/inkscape"
   version="1.0"
   width="4725.333"
   height="1157.333"
   viewBox="0 0 3544 868"
   id="svg4590"
   sodipodi:docname="ksike_logo_carta_ok-KSDTl-logo1.svg"
   inkscape:version="0.92.5 (2060ec1f9f, 2020-04-08)">
  <metadata
     id="metadata4594">
    <rdf:RDF>
      <cc:Work
         rdf:about="">
        <dc:format>image/svg+xml</dc:format>
        <dc:type
           rdf:resource="http://purl.org/dc/dcmitype/StillImage" />
        <dc:title></dc:title>
      </cc:Work>
    </rdf:RDF>
  </metadata>
  <sodipodi:namedview
     pagecolor="#ffffff"
     bordercolor="#666666"
     borderopacity="1"
     objecttolerance="10"
     gridtolerance="10"
     guidetolerance="10"
     inkscape:pageopacity="0"
     inkscape:pageshadow="2"
     inkscape:window-width="1920"
     inkscape:window-height="1017"
     id="namedview4592"
     showgrid="false"
     inkscape:zoom="0.30474043"
     inkscape:cx="2362.6665"
     inkscape:cy="578.6665"
     inkscape:window-x="-8"
     inkscape:window-y="-8"
     inkscape:window-maximized="1"
     inkscape:current-layer="svg4590" />
  <defs
     id="defs4586" />
  <path
     d="M388.8 27.5c-97.1 9.3-183.4 50.7-251.3 120.7C74.8 212.8 35.8 297.4 26.9 388.5c-1.6 16.5-1.6 58.3 0 74 9.5 93.6 47.6 176 111.6 241.4 20.8 21.3 38.4 36.2 60.5 51.3 49.5 33.8 100.6 54.5 160 64.7 10.1 1.7 19.3 2.8 39 4.6 9.6.9 49 .6 60.5-.5 42.2-3.9 76.4-11.9 114-26.7 13.1-5.2 36.9-16.3 38.9-18.3s-7.8-32.7-17-53.3c-6.4-14.4-17.6-33.8-26.3-45.5-11.3-15.2-33.3-35.3-42.5-38.8-2.6-1-1.9-1.9 4.1-5.9 11.8-7.9 24.9-22.4 32.4-36.1 2.3-4.1 4.4-7.4 4.7-7.4 3.2 0 28.5 4.8 39.7 7.5 25.5 6.1 46.6 13.6 69.5 24.6 22.9 11 41.7 22.6 59.6 36.5 7.5 5.8 8.3 6.2 9.6 4.6 3-3.5 12.8-18 12.8-19 0-.5-4.6-5.4-10.3-10.8-44.9-43.3-104.9-73.4-162.3-81.5l-8.1-1.1-.6-11.6c-1.4-26-10.4-46.6-27.2-62-4.5-4.1-6.2-6.3-5.4-6.8 2.3-1.4 57.9-1.7 73.6-.5 63.4 5.2 131.5 22.6 187.6 48 3.8 1.7 7 3.1 7.2 3.1.6 0 2.5-7.2 2.5-9.2 0-3.7-27.9-22.2-53.6-35.4-53.5-27.8-111.3-43.8-179.9-49.9-29.3-2.6-75-.8-99.5 3.9-4.1.8-7.8 1.1-8.1.8-.3-.4-1.8-5.7-3.4-11.7-3.7-14.7-12.3-40.8-17.3-52.3l-4-9.3 7.7-3.8c90.9-45.7 209.4-49.4 326.1-10.1 11.3 3.8 23.8 8.3 27.9 10 4.1 1.6 7.6 2.8 7.8 2.6.3-.2-.1-3.9-.8-8l-1.3-7.7-9-5.8c-74.9-48.1-159.1-65.6-253.4-52.6-36 5-80.7 17.5-114.9 32.1-5.8 2.5-10.6 4.4-10.7 4.2-.1-.2-2.1-5.3-4.5-11.3-7.3-18.5-15.2-32.3-29.3-50.8l-5.9-7.8 2.9-3.7c4.3-5.4 18.6-18.9 27.7-26.2 53.9-43 138.6-67.9 235-69.3 18.5-.3 49.2.6 59.3 1.6l4.3.5-5.3-5.7c-2.9-3.1-7.4-7.5-10-9.9-4.6-4.3-4.7-4.4-17.5-6.2-7-1-15.9-2.1-19.8-2.5-3.8-.4-8.1-.9-9.5-1.2-4.9-.9-63.7-1.1-74.5-.2-59.6 4.9-110.1 18.2-160.5 42.2-20.4 9.6-48 26.4-65.8 39.8l-6.3 4.8-8.7-7.1c-11.1-8.9-27.5-19.9-36.4-24.4l-6.9-3.5 2.2-3.7c11.6-19 22.4-32.5 38-47.8 31.1-30.3 70.9-54.9 119.8-73.9 14.1-5.5 37.7-13.3 48.4-16.1 3.4-.8 6.5-1.9 7-2.3.9-.9-24.2-5.6-41.3-7.7-17.8-2.2-63.6-2.7-82.2-.9zM284.6 231.9c25.6 12.6 47 34.7 60.5 62.6 12.7 26.2 16 51.1 9.4 71.2-.3.8-1.8.6-5.3-.7-9-3.4-28.6-8-38.9-9-18.5-1.9-32.3 1.2-42.2 9.6-2.9 2.4-8.8 11.1-8 11.8.2.2 9.2 2 19.9 4 26.4 5 60.7 13.5 79.2 19.7 33.3 11.1 48.4 22.1 43.4 31.7-2.5 4.9-12.5 16.8-26.1 31.2-13.2 13.9-19.8 22.8-21.4 28.6-1.6 5.9.2 9.5 8.5 16.9 9 8.1 12.9 13.6 16 22.4 3.9 11 3.5 13.6-4.1 23.8-7.9 10.6-16.6 27.9-19.7 38.8-2.9 10.7-3.1 26.5-.4 34.5 4.6 13.6 11.4 22.7 23.7 32 21.8 16.4 64.5 30.1 101.7 32.6 5.6.4 10.5 1 10.7 1.4 1.1 1.7-27.9 2.2-129.5 2.2-51.8-.1-65.4-.7-83.2-4.2-39.4-7.6-60.9-22.6-69.9-48.8-3.8-11.2-8.1-50.4-10.1-93.6l-1.2-26.5-12.5-4c-14.9-4.9-27.7-11-31.7-15.2-6.4-6.7-3.7-22.5 7.6-45 9.7-19.4 21.2-36 41-59.9 21.9-26.3 23.4-31.6 11-40-7.6-5.2-10.6-9-12.6-15.7-3.9-13.6 2.5-34.2 16.7-53.3 13.2-18 53.5-64 55.9-64 .8 0 6.1 2.2 11.6 4.9zM489 483.1c11.6 3.1 20.4 8.3 29.6 17.4 14.1 13.9 19.9 27.8 19.9 47.5s-5.8 33.5-20 47.6c-13.3 13.3-28.3 19.5-47 19.5-12 0-19-1.7-30.5-7.3-11.9-5.8-23.8-17.7-29.7-29.8-9.6-19.8-9.7-40.3 0-60 5.3-11 17.6-23.7 28.2-29.2 16.2-8.4 32.2-10.2 49.5-5.7zM1840.5 69.5c-44.9 4.9-81.6 16.2-110.8 34.2-27.7 17.1-52.7 43.7-67.9 72.3-8.8 16.5-15.1 36.8-18.4 58.8-2.3 15.7-1.5 47.3 1.5 61.8 8.4 40.4 29.2 71.8 65.7 98.9 24.8 18.5 54.1 35.4 98 56.4 28.1 13.4 54.6 27.3 67.4 35.3 33.9 21.4 52.8 45.8 59.2 76.8 1.7 8.1 1.9 11.9 1.5 26-.5 14.3-1 17.9-3.6 27.1-9.5 33.3-34.5 57.9-68.6 67.2-10.6 2.9-11.8 3-33 3.1-20 .1-22.9-.1-31.5-2.3-23.1-5.8-36.9-13.3-52.8-28.5-22-21.2-36.5-56.2-49.5-120.1l-2.2-11-23.1-.3-23.1-.2-.6 52.2c-.6 44-1.2 59-3.7 94.2-1.7 23.1-2.7 42.3-2.3 42.7 1.6 1.4 36.5 11.6 54.3 15.7 14.5 3.4 25.3 5.2 50.3 8.3 21.1 2.6 28.8 3 60.2 3.6 29.8.5 39.1.3 54-1.1 76.9-7.3 127.2-28.4 163-68.3 29.9-33.2 46.1-67.2 52.1-108.7 2.2-15.7 1.5-49.9-1.4-65.6-9.8-52.3-35.5-88.5-87.1-122.4-21.7-14.3-43.1-25.9-76.4-41.2-19.2-8.9-51.3-25-61.7-30.9-14.7-8.4-33.2-21.2-40.8-28.1-13.8-12.6-24.4-29.1-29.3-45.9-2.1-7-2.4-10.1-2.4-24 .1-14.7.3-16.7 2.9-25 9.2-29.5 31.1-49.2 63.6-57.3 9.8-2.4 12-2.6 32.5-2.6 21.4.1 22.3.1 34.2 3.2 23.6 6.2 43.9 19 56.4 35.5 14.4 19 27.7 55.5 35.5 96.9l1.8 9.8h45.1V96.9L2043 95c-30.4-8.9-40.2-11.4-58.5-15.4-11.5-2.5-30.9-6-43-7.6-20-2.8-24.9-3.1-55-3.5-24-.3-36.5 0-46 1zM872 98.8v16.7l10.3 1.9c19.1 3.4 47.1 9.8 58.5 13.2 23.1 7 27.1 10.9 30.9 29.8 1.5 7.3 1.7 29.3 2 219.3.4 216.4-.1 267.5-3.1 278.2-3.7 13.2-10.4 17.5-38.7 24.5-16.6 4.2-53.8 11.6-57.9 11.6-1.9 0-2 .8-2 17.2v17.1l21.3-.6c11.6-.4 34.7-1.3 51.2-1.9 40.6-1.7 188.6-1.7 220 0 13.2.6 30.4 1.5 38.3 1.9l14.2.6v-17.1c0-10.9-.4-17.2-1-17.2s-13.1-2-27.8-4.6c-30.2-5.1-49.4-9.4-54.9-12.3-8.9-4.7-13.5-11.9-15.3-24.1-1.8-12.3-3.1-93.3-2.8-172.7l.3-74.2 93 121.5c51.2 66.8 94.7 124.3 96.8 127.7 2 3.4 4.2 7.8 4.7 9.7 2 7.3-2.1 14.9-10.2 19.1-6.9 3.6-37.1 9.9-47.2 9.9h-2.6v34h6.8c3.7 0 21.8-.8 40.2-1.7 48.3-2.5 208.4-2.5 258.1 0 19.1.9 37.6 1.7 41.3 1.7h6.6v-33.5l-19.2-4.9c-32.2-8.1-60.5-17.9-74.8-25.9-21.5-12-44.3-34.6-80-79.2-15.7-19.6-56.2-68.2-79.9-96-26.3-30.6-80-95.1-99-118.7l-14.2-17.8 81.9-83.8c45.1-46.1 87.3-88.7 93.8-94.8 25.1-23.2 40.9-34.9 54.6-40.4 12.4-4.9 52-13.7 74.6-16.6l5.2-.7v-34l-13.2.7c-7.3.3-22.3 1.2-33.3 1.9-31.2 1.9-149.4 1.5-187.8-.6-17-.9-32.9-1.7-35.3-1.7h-4.4v33.7l4.3.7c11.4 1.8 51.7 11 55.4 12.6 8 3.5 10.2 11.5 5.7 20.3-15.3 29.8-80.1 102.2-185.8 207.7l-36.6 36.5.1-45.5c.1-25 .5-77.5.9-116.5.8-73.9 1-76.8 5.3-85.1.9-1.7 3.2-4.6 5.2-6.6 7-6.8 12.1-8.4 52.3-16.7l37.7-7.7.3-16.7.2-16.7h-6.3c-3.6 0-21 .8-38.8 1.7-46.9 2.5-203.5 2.5-252.5 0-18.8-.9-37.1-1.7-40.8-1.7H872v16.8zM2120.2 98.7l.3 16.8 28.1 5.6c32.5 6.5 53 11.9 59.1 15.4 4.9 2.9 9.3 8.9 11.6 15.7 5.2 15.1 5.9 57.3 5.4 292.8-.3 179.3-.5 199.2-2 205.4-4.5 18.9-12.4 25.4-39.2 32.2-11 2.7-59.8 12.4-62.8 12.4-.4 0-.7 7.4-.7 16.5V728h8.8c4.8 0 25.8-.7 46.7-1.5 64.6-2.6 125.1-2.9 176.5-1 125.2 4.6 161.9 2.9 215-9.6 86.2-20.4 165.9-76.8 214.1-151.4C2820.3 503.9 2839 437 2839 358c0-40.9-3.5-69.3-12.3-101-15.9-57-54.6-107.7-105-137.8-37.4-22.3-72.4-32.3-126.7-36.3-19.7-1.4-116-.7-162 1.2-47.7 2.1-217.4 1.8-264.2-.4-20.8-.9-40.2-1.7-43.3-1.7h-5.5l.2 16.7zm387.6 36.9c28.6 3.3 50.5 9.4 72.2 20.1 20.5 10.2 34.2 21.3 48.9 39.3 36.7 45 54 105.9 54.1 190 0 82.9-14.9 148.2-45.5 198.9-28.3 47.2-66 74.6-118 86.1-23.3 5.1-37.5 6.3-69 5.7-27.8-.5-41.8-1.8-72.5-6.5l-11.5-1.8-.6-20.2c-3.1-97.4-3.4-119.1-3.4-265.7 0-145.8.4-169.4 3.1-226l.7-13.1 17.6-2.2c16.5-2.1 43.4-4.8 54.6-5.5 16.3-1.1 56.7-.6 69.3.9zM2913.6 105.6c-1.5 55.2-3.1 78.1-8.7 128.5-2.1 19.6-3.9 36.4-3.9 37.3 0 1.5 2.1 1.6 20.6 1.4l20.6-.3 5.9-19.5c11.9-39.2 22.4-69.1 28.9-82 8.1-16.2 18.4-24.2 34.5-27 10.6-1.8 40.1-2.9 78.8-3h34.7v242.2c0 153.1-.4 247.8-1 257.3-.9 13.3-1.4 15.7-4 21.3-4.6 9.8-9.4 13.2-24.5 17.6-9.2 2.7-58.7 13-68.2 14.2l-5.3.7V728h6c3.4 0 23-.8 43.8-1.7 52-2.4 172.1-2.4 234.4 0 24.6.9 47.9 1.7 51.8 1.7h7v-33.5l-23.2-4.4c-41.3-7.7-56.6-11.7-62.9-16.3-8.4-6.1-10.9-13.8-13-40.3-.8-10.6-1.3-84.8-1.6-253.9l-.5-238.9 43.4.7c44.5.7 66.2 1.8 75.8 3.7 10.8 2.1 22.1 11.3 27.9 22.6 4.1 8.2 17.3 44.9 30.1 84.3l6.7 20.5 21.1.3 21.2.2v-2.2c0-1.3-1.1-11.7-2.5-23.2-5.6-46.8-10.5-115.7-10.5-148.4V81.7l-22.2.7c-77 2.2-133.6 2.9-244.8 2.9-111.9 0-150.3-.4-265.1-2.9l-30.6-.7-.7 23.9z"
     id="path4588" />
  <path
     style="fill:#ffcc00;fill-opacity:0;stroke-width:3.28148127"
     d="M 516.8333,1097.0664 C 308.13586,1074.7443 128.69721,932.75845 64.299769,738.98645 41.780356,671.22554 37.978655,646.45866 37.97814,567.50947 37.977745,506.93431 39.003856,492.24873 45.234457,463.65794 97.802895,222.43336 295.16364,51.75075 538.22002,37.311406 c 35.38605,-2.102192 99.86447,1.931976 127.92067,8.003509 11.00905,2.382424 9.98877,2.987853 -24.6111,14.603911 -81.87178,27.486448 -146.18524,64.652144 -193.90247,112.053054 -22.88761,22.73591 -56.6825,66.27579 -53.32302,68.69911 0.61292,0.44212 8.49772,4.99992 17.5218,10.12844 9.02407,5.12852 24.68264,15.64839 34.79682,23.3775 l 18.38943,14.05291 25.77593,-17.94132 c 109.42775,-76.16716 259.93775,-111.88158 401.30029,-95.22431 35.95138,4.23629 37.67682,4.8051 49.03766,16.16596 l 11.77521,11.77519 -39.19326,-1.93623 c -21.55628,-1.06493 -59.7162,-0.21146 -84.79984,1.89657 -125.41553,10.53997 -216.12981,43.27137 -285.11134,102.8735 -28.38287,24.52367 -28.58833,25.48309 -10.95952,51.17812 8.22871,11.99384 20.20601,33.218 26.61622,47.16482 l 11.65494,25.35784 17.16241,-6.95533 c 128.08599,-51.9087 261.16161,-60.86764 372.90887,-25.10507 38.79853,12.41673 73.89648,28.33536 104.48128,47.38741 19.3832,12.07421 23.7908,16.36153 23.7908,23.1415 0,6.6301 -1.1673,7.84553 -5.7426,5.97925 -42.6,-17.37662 -119.28337,-37.74399 -168.17593,-44.66808 -43.40317,-6.1467 -134.78756,-5.27557 -173.91851,1.65787 -38.72925,6.8623 -89.42794,22.19913 -120.16144,36.35002 l -23.35778,10.75479 17.05481,50.45616 c 9.75138,28.84914 18.65876,50.11859 20.80029,49.66791 2.06002,-0.43355 21.878,-2.46344 44.03997,-4.51092 124.86128,-11.53546 269.83864,22.68744 373.36489,88.13533 23.4261,14.80972 32.7273,23.50312 30.7261,28.71831 -1.1893,3.09933 -9.9871,0.77568 -33.3982,-8.82108 -41.9112,-17.18042 -99.62255,-33.6528 -154.57112,-44.11879 -34.46267,-6.56408 -58.89058,-8.87352 -107.73641,-10.18552 -70.70204,-1.89906 -72.44086,-1.27771 -51.96517,18.56809 15.14951,14.68352 27.9463,44.40803 30.39157,70.59392 l 2.00203,21.43926 11.83673,1.9617 c 74.49828,12.34664 153.24314,51.00591 206.32037,101.29159 22.7786,21.58056 22.8298,21.79592 9.29112,39.05356 -4.453,5.67618 -6.11297,5.02516 -30.40912,-11.92598 -50.20922,-35.03041 -112.34312,-61.3892 -174.64296,-74.08804 -18.75068,-3.82201 -34.54589,-6.94913 -35.10053,-6.94913 -0.5546,0 -6.4168,8.14812 -13.02712,18.10695 -6.61028,9.95881 -19.61003,24.79917 -28.88835,32.97859 l -16.86967,14.87168 9.84444,6.91946 c 36.30473,25.51782 71.83852,75.82814 92.60471,131.11398 18.51363,49.28873 19.55376,45.33553 -16.01943,60.88543 -40.73894,17.8079 -86.04694,31.8574 -124.16676,38.5026 -30.44023,5.3065 -116.56543,9.1191 -142.74443,6.319 z M 643.17033,928.63989 c 8.12166,-1.44513 13.29,-2.82102 11.48518,-3.05758 -60.57542,-7.93912 -93.49429,-16.62724 -126.90719,-33.49402 -26.28476,-13.2685 -40.0487,-26.38114 -48.62997,-46.3289 -12.61566,-29.32588 -4.87976,-62.49401 25.16446,-107.89389 7.50229,-11.33673 7.78561,-13.199 3.95383,-25.98845 -2.2702,-7.57717 -10.49382,-20.85742 -18.27474,-29.5117 -7.78091,-8.65425 -14.14712,-18.621 -14.14712,-22.14829 0,-7.26064 8.41421,-18.81861 40.19815,-55.21723 12.76857,-14.62244 22.15,-28.38619 22.15,-32.4969 0,-20.24867 -41.78511,-38.05189 -142.16575,-60.57201 -23.14432,-5.19235 -42.9621,-10.32213 -44.03949,-11.39954 -3.67457,-3.67457 13.40946,-18.34187 25.16897,-21.60858 17.49479,-4.85994 34.9275,-3.9808 65.26082,3.29116 15.00405,3.59696 28.55696,6.53996 30.11757,6.53996 5.20768,0 7.33509,-34.74127 3.33907,-54.52742 -9.95178,-49.27574 -48.45954,-101.63605 -90.60262,-123.19543 l -21.42856,-10.96232 -19.04723,20.14345 c -30.90991,32.68884 -62.9463,73.82376 -71.20444,91.42691 -5.15523,10.98896 -7.70776,22.41868 -7.72923,34.60994 -0.0299,16.93045 0.88527,19.09832 13.09387,31.01968 7.21926,7.04941 13.12592,15.32898 13.12592,18.39904 0,3.07005 -10.76835,19.38286 -23.92966,36.25069 -33.40751,42.81581 -43.61251,58.2791 -56.83192,86.11542 -9.19561,19.36333 -11.30475,27.42173 -10.49393,40.09418 0.93848,14.66757 2.00171,16.42106 14.1407,23.32077 7.21926,4.10336 20.68138,9.88655 29.91582,12.85153 l 16.78989,5.39085 2.24036,39.7369 c 5.27897,93.63211 11.6249,127.08855 27.80996,146.61707 17.80288,21.48055 63.16402,39.35625 110.2884,43.46188 27.18868,2.36877 227.04113,1.65022 241.18888,-0.86717 z M 664.7145,813.98018 c 33.04386,-15.00848 53.94322,-46.24601 53.91158,-80.57982 -0.0263,-29.12322 -5.15031,-43.2666 -22.32483,-61.62754 -22.67976,-24.2465 -36.27415,-30.31642 -67.89759,-30.31642 -30.25811,0 -44.64104,5.93758 -64.62972,26.68058 -42.67875,44.2893 -30.51499,116.25605 24.26327,143.55318 21.45705,10.69251 55.91211,11.72152 76.67729,2.29002 z"
     id="path4596"
     inkscape:connector-curvature="0"
     transform="scale(0.75000013)" />
  <path
     style="fill:#fed136;fill-opacity:1;stroke-width:3.28148127"
     d="M 516.8333,1097.0664 C 308.13586,1074.7443 128.69721,932.75845 64.299769,738.98645 41.780356,671.22554 37.978655,646.45866 37.97814,567.50947 37.977745,506.93431 39.003856,492.24873 45.234457,463.65794 97.802895,222.43336 295.16364,51.75075 538.22002,37.311406 c 35.38605,-2.102192 99.86447,1.931976 127.92067,8.003509 11.00905,2.382424 9.98877,2.987853 -24.6111,14.603911 -81.87178,27.486448 -146.18524,64.652144 -193.90247,112.053054 -22.88761,22.73591 -56.6825,66.27579 -53.32302,68.69911 0.61292,0.44212 8.49772,4.99992 17.5218,10.12844 9.02407,5.12852 24.68264,15.64839 34.79682,23.3775 l 18.38943,14.05291 25.77593,-17.94132 c 109.42775,-76.16716 259.93775,-111.88158 401.30029,-95.22431 35.95138,4.23629 37.67682,4.8051 49.03766,16.16596 l 11.77521,11.77519 -39.19326,-1.93623 c -21.55628,-1.06493 -59.7162,-0.21146 -84.79984,1.89657 -125.41553,10.53997 -216.12981,43.27137 -285.11134,102.8735 -28.38287,24.52367 -28.58833,25.48309 -10.95952,51.17812 8.22871,11.99384 20.20601,33.218 26.61622,47.16482 l 11.65494,25.35784 17.16241,-6.95533 c 128.08599,-51.9087 261.16161,-60.86764 372.90887,-25.10507 38.79853,12.41673 73.89648,28.33536 104.48128,47.38741 19.3832,12.07421 23.7908,16.36153 23.7908,23.1415 0,6.6301 -1.1673,7.84553 -5.7426,5.97925 -42.6,-17.37662 -119.28337,-37.74399 -168.17593,-44.66808 -43.40317,-6.1467 -134.78756,-5.27557 -173.91851,1.65787 -38.72925,6.8623 -89.42794,22.19913 -120.16144,36.35002 l -23.35778,10.75479 17.05481,50.45616 c 9.75138,28.84914 18.65876,50.11859 20.80029,49.66791 2.06002,-0.43355 21.878,-2.46344 44.03997,-4.51092 124.86128,-11.53546 269.83864,22.68744 373.36489,88.13533 23.4261,14.80972 32.7273,23.50312 30.7261,28.71831 -1.1893,3.09933 -9.9871,0.77568 -33.3982,-8.82108 -41.9112,-17.18042 -99.62255,-33.6528 -154.57112,-44.11879 -34.46267,-6.56408 -58.89058,-8.87352 -107.73641,-10.18552 -70.70204,-1.89906 -72.44086,-1.27771 -51.96517,18.56809 15.14951,14.68352 27.9463,44.40803 30.39157,70.59392 l 2.00203,21.43926 11.83673,1.9617 c 74.49828,12.34664 153.24314,51.00591 206.32037,101.29159 22.7786,21.58056 22.8298,21.79592 9.29112,39.05356 -4.453,5.67618 -6.11297,5.02516 -30.40912,-11.92598 -50.20922,-35.03041 -112.34312,-61.3892 -174.64296,-74.08804 -18.75068,-3.82201 -34.54589,-6.94913 -35.10053,-6.94913 -0.5546,0 -6.4168,8.14812 -13.02712,18.10695 -6.61028,9.95881 -19.61003,24.79917 -28.88835,32.97859 l -16.86967,14.87168 9.84444,6.91946 c 36.30473,25.51782 71.83852,75.82814 92.60471,131.11398 18.51363,49.28873 19.55376,45.33553 -16.01943,60.88543 -40.73894,17.8079 -86.04694,31.8574 -124.16676,38.5026 -30.44023,5.3065 -116.56543,9.1191 -142.74443,6.319 z M 643.17033,928.63989 c 8.12166,-1.44513 13.29,-2.82102 11.48518,-3.05758 -60.57542,-7.93912 -93.49429,-16.62724 -126.90719,-33.49402 -26.28476,-13.2685 -40.0487,-26.38114 -48.62997,-46.3289 -12.61566,-29.32588 -4.87976,-62.49401 25.16446,-107.89389 7.50229,-11.33673 7.78561,-13.199 3.95383,-25.98845 -2.2702,-7.57717 -10.49382,-20.85742 -18.27474,-29.5117 -7.78091,-8.65425 -14.14712,-18.621 -14.14712,-22.14829 0,-7.26064 8.41421,-18.81861 40.19815,-55.21723 12.76857,-14.62244 22.15,-28.38619 22.15,-32.4969 0,-20.24867 -41.78511,-38.05189 -142.16575,-60.57201 -23.14432,-5.19235 -42.9621,-10.32213 -44.03949,-11.39954 -3.67457,-3.67457 13.40946,-18.34187 25.16897,-21.60858 17.49479,-4.85994 34.9275,-3.9808 65.26082,3.29116 15.00405,3.59696 28.55696,6.53996 30.11757,6.53996 5.20768,0 7.33509,-34.74127 3.33907,-54.52742 -9.95178,-49.27574 -48.45954,-101.63605 -90.60262,-123.19543 l -21.42856,-10.96232 -19.04723,20.14345 c -30.90991,32.68884 -62.9463,73.82376 -71.20444,91.42691 -5.15523,10.98896 -7.70776,22.41868 -7.72923,34.60994 -0.0299,16.93045 0.88527,19.09832 13.09387,31.01968 7.21926,7.04941 13.12592,15.32898 13.12592,18.39904 0,3.07005 -10.76835,19.38286 -23.92966,36.25069 -33.40751,42.81581 -43.61251,58.2791 -56.83192,86.11542 -9.19561,19.36333 -11.30475,27.42173 -10.49393,40.09418 0.93848,14.66757 2.00171,16.42106 14.1407,23.32077 7.21926,4.10336 20.68138,9.88655 29.91582,12.85153 l 16.78989,5.39085 2.24036,39.7369 c 5.27897,93.63211 11.6249,127.08855 27.80996,146.61707 17.80288,21.48055 63.16402,39.35625 110.2884,43.46188 27.18868,2.36877 227.04113,1.65022 241.18888,-0.86717 z M 664.7145,813.98018 c 33.04386,-15.00848 53.94322,-46.24601 53.91158,-80.57982 -0.0263,-29.12322 -5.15031,-43.2666 -22.32483,-61.62754 -22.67976,-24.2465 -36.27415,-30.31642 -67.89759,-30.31642 -30.25811,0 -44.64104,5.93758 -64.62972,26.68058 -42.67875,44.2893 -30.51499,116.25605 24.26327,143.55318 21.45705,10.69251 55.91211,11.72152 76.67729,2.29002 z"
     id="path4598"
     inkscape:connector-curvature="0"
     transform="scale(0.75000013)" />
  <path
     style="fill:#fed136;fill-opacity:1;stroke-width:3.28148127"
     d="m 1164.9572,946.52055 0.032,-19.68888 46.7297,-9.10667 c 52.8023,-10.2901 73.9172,-19.01658 81.1852,-33.55259 4.2558,-8.51151 5.0479,-53.57963 5.8503,-332.85174 0.6464,-224.95257 -0.164,-328.26819 -2.6696,-340.33744 -5.9133,-28.48405 -20.5812,-36.01546 -102.4455,-52.60166 l -28.713,-5.81741 v -19.76992 l -10e-5,-19.76993 h 228.0629 228.0629 l -0.013,19.68889 -0.013,19.68889 -51.3117,10.82005 c -58.146,12.2612 -67.5985,16.13825 -75.7613,31.07438 -5.2849,9.67016 -5.8731,24.84225 -6.6444,171.40185 l -0.8461,160.79258 89.4461,-90.29246 c 99.7261,-100.67198 150.1335,-155.79499 185.3012,-202.63872 38.3941,-51.14139 36.6312,-57.9276 -18.4712,-71.10313 -19.3534,-4.62759 -37.6684,-8.41381 -40.7001,-8.41381 -4.5737,0 -5.512,-3.49113 -5.5121,-20.50926 l -10e-5,-20.50926 h 182.1222 182.1222 l 10e-5,20.13116 1e-4,20.13115 -18.2933,2.2856 c -28.543,3.56621 -82.1121,17.36075 -97.4389,25.09141 -7.6374,3.85226 -24.0573,15.27756 -36.4886,25.38955 -22.685,18.45273 -261.2458,259.06744 -261.2458,263.49505 0,2.4977 47.2184,59.94006 183.3198,223.01314 123.1057,147.50189 128.3859,153.54993 149.2189,170.91631 29.898,24.92305 60.4754,38.07339 138.3539,59.50162 l 16.4074,4.5145 0.9556,19.35782 0.9557,19.35782 h -234.8965 -234.8965 l 0.9557,-19.68889 0.9556,-19.68888 16.4844,-2.01214 c 29.0091,-3.54095 53.5839,-12.24741 59.3322,-21.02038 10.6553,-16.26217 19.3179,-3.28286 -151.0511,-226.32262 l -105.247,-137.78477 -0.9973,144.34773 c -1.121,162.25586 0.2484,192.82644 9.3054,207.71931 7.485,12.30811 23.1393,17.56551 82.7531,27.79214 l 41.8388,7.17739 -6e-4,19.74054 -6e-4,19.74057 h -228.0624 -228.0624 l 0.032,-19.68889 z"
     id="path4608"
     inkscape:connector-curvature="0"
     transform="scale(0.75000013)" />
  <path
     style="fill:#fed136;fill-opacity:1;stroke-width:3.28148127"
     d="m 2352.8221,985.2819 c -55.875,-5.87119 -142.1497,-24.34524 -157.2357,-33.66888 -3.7518,-2.31873 -3.8737,-11.60549 -0.7418,-56.50163 2.0613,-29.54974 3.7583,-75.10956 3.7712,-101.244 0.013,-26.13447 0.9647,-57.48469 2.1152,-69.66719 l 2.092,-22.15 h 28.3853 28.3854 l 5.9388,28.71296 c 14.5946,70.56163 33.8606,114.78854 62.625,143.76146 30.5105,30.73177 64.146,43.9941 111.7547,44.06439 62.3352,0.0919 107.1691,-25.76104 130.8181,-75.43512 9.6728,-20.31739 10.1547,-23.27627 10.1547,-62.34814 0,-39.03489 -0.4745,-41.9562 -9.8117,-60.40817 -22.1884,-43.84807 -51.3016,-65.73971 -160.2012,-120.46307 -137.6363,-69.16388 -183.9483,-108.96917 -209.53,-180.0917 -6.8248,-18.97449 -7.6571,-26.94572 -7.5382,-72.19259 0.1219,-46.38776 0.9175,-53.21042 9.043,-77.54312 19.8462,-59.43226 66.2155,-111.76772 125.3641,-141.49431 51.7035,-25.98493 101.4571,-35.417608 183.7629,-34.839239 67.6667,0.475498 114.3267,7.228579 183.763,26.595889 l 32.8148,9.15279 0.8634,112.34547 0.8635,112.34549 h -27.7146 c -31.0869,0 -28.1923,2.58592 -34.8957,-31.17408 -5.2461,-26.42025 -18.2547,-64.74012 -29.7509,-87.63756 -17.7491,-35.35184 -41.3236,-55.36119 -80.6398,-68.4448 -18.0655,-6.01179 -26.9374,-6.83927 -62.7828,-5.85568 -39.4257,1.08184 -42.9607,1.74454 -63.6432,11.93086 -26.4803,13.04178 -45.5397,33.48865 -55.261,59.28376 -10.1185,26.84903 -7.9918,70.38235 4.6381,94.94309 20.7071,40.26807 49.0807,60.75517 162.8528,117.58731 44.2545,22.10632 92.1114,47.89309 106.3486,57.30392 34.4251,22.75497 67.6854,54.60975 84.0129,80.46261 46.5067,73.63811 47.2397,184.72206 1.7313,262.37631 -15.4598,26.38006 -46.582,62.44117 -67.6995,78.44292 -58.0236,43.96726 -138.143,64.5532 -247.3824,63.56272 -30.6818,-0.27827 -60.9535,-1.04889 -67.2703,-1.71267 z"
     id="path4610"
     inkscape:connector-curvature="0"
     transform="scale(0.75000013)" />
  <path
     style="fill:#fed136;fill-opacity:1;stroke-width:3.28148127"
     d="m 2828.637,947.40344 c -1e-4,-16.86094 0.7635,-18.96447 7.3832,-20.3382 4.0608,-0.84272 22.8883,-4.64031 41.8389,-8.43908 18.9505,-3.79874 41.4008,-9.13988 49.8895,-11.86912 18.0659,-5.80845 34.1958,-22.38873 37.0666,-38.10151 1.0787,-5.90424 1.5207,-156.18663 0.9822,-333.96087 -0.9561,-315.63788 -1.1332,-323.53405 -7.542,-336.35183 -8.7585,-17.51697 -19.682,-22.34409 -79.7396,-35.23705 l -49.8595,-10.70369 -0.01,-19.68889 -0.01,-19.68889 332.2478,0.12452 c 360.9915,0.13528 347.8586,-0.46201 404.051,18.37652 95.5576,32.03574 169.4863,107.75575 199.7985,204.63969 14.2704,45.61124 17.1867,70.49556 16.9208,144.38517 -0.2094,58.20974 -1.3866,74.2618 -7.5802,103.36666 -20.4357,96.03147 -61.5272,174.10126 -125.7381,238.88954 -71.3124,71.95373 -150.9576,114.91439 -251.8056,135.82396 -33.9519,7.03953 -40.0878,7.18989 -301.2779,7.38248 l -266.6202,0.19659 z m 516.6761,-50.16946 c 86.6628,-15.11276 144.7108,-60.22138 185.719,-144.32082 33.172,-68.02921 46.0292,-132.96785 46.4536,-234.62591 0.4454,-106.71013 -15.4465,-175.7564 -54.2636,-235.76149 -57.4851,-88.86289 -147.0098,-117.3014 -315.5742,-100.24563 -28.877,2.92185 -53.061,5.82746 -53.7421,6.45691 -4.2186,3.89832 -6.8412,341.83906 -3.955,509.62943 1.8123,105.36043 3.7266,191.99586 4.2539,192.5232 0.5273,0.52733 17.1978,3.13749 37.0454,5.80031 48.6276,6.52411 118.3586,6.77032 154.063,0.544 z"
     id="path4612"
     inkscape:connector-curvature="0"
     transform="scale(0.75000013)" />
  <path
     style="fill:#aa8800;fill-opacity:1;stroke-width:3.28148127"
     d="m 4030.3443,946.91308 0.9554,-19.29635 47.3253,-9.51262 c 57.0096,-11.4592 73.139,-17.97606 81.2399,-32.82374 5.6557,-10.3662 6.0226,-29.37074 6.8551,-355.07002 l 0.8795,-344.1176 -76.3536,1.43726 c -114.7459,2.15995 -112.9581,0.80308 -150.4403,114.17948 l -18.985,57.42592 -26.6512,0.95589 -26.6512,0.9559 1.8148,-10.80034 c 4.9027,-29.17701 12.036,-115.07278 13.5687,-163.38922 0.9448,-29.77944 2.3759,-58.57444 3.1803,-63.98888 l 1.4626,-9.84445 h 372.4531 372.4532 l 0.01,8.20371 c 0.023,25.98078 7.7128,137.6805 12.7638,185.42426 3.2446,30.67054 5.7594,55.78066 5.5884,55.80029 -0.171,0.0197 -12.3455,-0.45735 -27.0544,-1.05992 l -26.7422,-1.0956 -20.3434,-59.64748 c -24.8463,-72.85053 -31.1195,-86.14043 -46.3934,-98.2859 -10.4848,-8.33738 -15.8655,-9.84115 -44.3,-12.38096 -17.801,-1.59002 -55.623,-2.94362 -84.0488,-3.008 l -51.6834,-0.11707 0.026,320.76479 c 0.013,187.17179 1.3587,332.36716 3.2274,348.62274 5.0943,44.31443 7.8969,46.34869 85.3477,61.94839 l 44.3,8.92264 0.9556,19.5466 0.9557,19.54664 h -228.3333 -228.3332 l 0.9554,-19.29636 z"
     id="path4614"
     inkscape:connector-curvature="0"
     transform="scale(0.75000013)" />
  <path
     style="fill:#aa8800;fill-opacity:1;stroke-width:3.28148127"
     d="m 4031.9141,947.34092 c 1.0703,-9.47527 2.1263,-17.49197 2.3467,-17.81486 0.2204,-0.3229 20.6464,-5.03508 45.3911,-10.47151 52.4402,-11.52118 71.8383,-19.25619 80.1692,-31.9674 5.7259,-8.73658 6.068,-26.09703 7.0173,-356.08026 l 0.9979,-346.89593 -45.2979,1.42061 c -115.7945,3.63149 -122.3789,4.60168 -140.0857,20.64108 -12.2981,11.13999 -23.4455,36.09943 -44.5008,99.63869 l -17.1265,51.68333 -13.674,0.0361 c -7.5206,0.02 -18.9214,0.90434 -25.335,1.96552 l -11.6612,1.92939 3.9867,-31.44022 c 3.5152,-27.72182 5.5271,-55.87587 13.2176,-184.96673 l 1.8083,-30.35371 h 371.6323 371.6323 l 2.1705,50.04259 c 2.0488,47.23588 9.3364,140.72222 13.9526,178.9859 l 2.0959,17.37294 -25.8277,-0.96554 -25.8277,-0.96553 -10.6369,-31.17407 c -25.7946,-75.59748 -38.4403,-106.48255 -48.1061,-117.4913 -17.3628,-19.7751 -24.5115,-21.24898 -111.1892,-22.92424 l -78.0507,-1.50852 0.9359,342.5046 c 0.9153,334.96455 1.0804,342.79357 7.4988,355.63053 8.658,17.31595 19.9607,22.45337 75.1279,34.14821 24.8392,5.26563 45.5775,10.07306 46.0851,10.68319 0.5077,0.61012 1.7987,8.86184 2.8689,18.33711 l 1.946,17.22778 h -227.7538 -227.7537 z"
     id="path4616"
     inkscape:connector-curvature="0"
     transform="scale(0.75000013)" />
  <path
     style="fill:#aa8800;fill-opacity:1;stroke-width:3.28148127"
     d="m 2828.6816,954.10655 c 0.099,-23.91898 -0.066,-23.80127 46.963,-33.61389 49.9057,-10.41286 65.6319,-16.59563 79.3293,-31.18831 l 9.8444,-10.48791 V 543.50186 c 0,-314.65732 -0.358,-335.9697 -5.8109,-345.9485 -10.8724,-19.89655 -12.448,-20.47641 -122.9872,-45.26156 -6.5574,-1.47029 -7.3834,-3.66753 -7.3834,-19.64112 v -17.98563 l 307.6389,0.12193 c 169.2014,0.067 326.1569,1.38933 348.79,2.93838 32.2268,2.20567 47.883,5.06635 72.1926,13.19092 100.417,33.56065 171.6634,104.25151 204.4032,202.80921 15.863,47.75303 19.7983,84.4982 17.7832,166.04541 -1.4904,60.30929 -2.512,69.41728 -11.6654,104.00163 -25.6337,96.85262 -63.1143,161.3314 -132.5672,228.05891 -55.1595,52.99487 -112.8134,87.8674 -181.202,109.6019 -69.2115,21.996 -49.3755,20.73955 -350.5492,22.20417 l -274.8241,1.33649 z m 544.3302,-61.46644 c 77.9317,-22.84016 129.7964,-71.40047 167.1451,-156.49598 26.7416,-60.92847 37.3539,-122.63043 37.4696,-217.85688 0.1168,-96.23703 -8.4509,-146.933 -33.7897,-199.93532 -48.6611,-101.78656 -119.8238,-141.41162 -253.7613,-141.30018 -53.5624,0.0446 -133.2041,7.63791 -136.5286,13.01717 -8.5624,13.85419 -7.5382,692.62475 1.058,701.22099 5.9019,5.90184 68.0995,10.51377 128.5171,9.52952 55.5562,-0.90507 69.3533,-2.1605 89.8898,-8.17932 z"
     id="path4618"
     inkscape:connector-curvature="0"
     transform="scale(0.75000013)" />
  <path
     style="fill:#aa8800;fill-opacity:1;stroke-width:3.28148127"
     d="m 2310.0734,977.81742 c -42.2127,-7.12065 -78.4366,-15.09639 -99.1754,-21.83639 -14.8325,-4.8205 -15.5885,-5.64858 -15.6178,-17.10754 -0.075,-29.39039 7.0421,-222.79739 8.443,-229.43996 1.457,-6.90817 3.2386,-7.38333 27.6841,-7.38333 24.4013,0 26.2394,0.48763 27.8328,7.38333 0.9383,4.06083 3.9809,17.72 6.7612,30.3537 19.6223,89.16208 50.8626,139.20405 103.058,165.08227 l 24.4409,12.11772 h 46.2811 46.2811 l 25.047,-12.37886 c 28.5019,-14.08642 46.5758,-32.26156 60.717,-61.05692 8.1195,-16.53351 9.1716,-22.62167 10.1484,-58.72903 1.052,-38.88338 0.7538,-40.99311 -8.5802,-60.7074 -22.1988,-46.88623 -53.3264,-71.06107 -161.5059,-125.43147 -139.3018,-70.01234 -189.7482,-114.99757 -211.3393,-188.46039 -7.1362,-24.28044 -7.1877,-98.4032 -0.087,-125.80403 21.1233,-81.51751 94.2232,-151.16381 184.7716,-176.04193 53.8488,-14.794948 159.6321,-17.195845 228.4662,-5.18536 32.8755,5.73626 107.1072,24.17636 110.4184,27.42934 1.1712,1.15061 2.7137,52.07561 3.4277,113.16665 l 1.2982,111.07461 -23.8313,-1.20342 c -13.1072,-0.66189 -25.3296,-2.7017 -27.1608,-4.53292 -1.8312,-1.83121 -7.1905,-18.64059 -11.9096,-37.35416 -21.6793,-85.97036 -51.2693,-126.80716 -104.788,-144.61707 -18.4089,-6.12609 -27.0805,-6.90731 -66.3526,-5.9777 -42.4604,1.00509 -46.3274,1.65222 -64.3294,10.76538 -24.6082,12.45742 -49.0424,38.94297 -56.421,61.15768 -8.5194,25.64948 -5.7137,71.49798 5.8175,95.06694 18.4266,37.66271 44.3271,56.53835 159.5235,116.2567 114.9778,59.60506 133.4657,71.6391 168.9643,109.98193 23.201,25.05979 35.7148,46.40556 47.1187,80.37404 8.0207,23.89102 8.8252,30.82598 8.9453,77.11481 0.1483,57.12321 -3.7162,76.86969 -22.7978,116.49259 -14.1152,29.31009 -48.4989,72.62075 -72.8798,91.80144 -38.6591,30.41352 -98.1033,52.6198 -162.4603,60.68948 -43.6744,5.4763 -155.9862,3.72432 -196.2094,-3.06073 z"
     id="path4620"
     inkscape:connector-curvature="0"
     transform="scale(0.75000013)" />
  <path
     style="fill:#aa8800;fill-opacity:1;stroke-width:3.28148127"
     d="m 1164.9258,946.58306 c 0,-15.96873 0.828,-18.1731 7.3834,-19.65748 4.0608,-0.9195 22.8883,-4.77754 41.8389,-8.57343 43.3635,-8.68588 67.9891,-18.4051 76.8146,-30.31714 6.8587,-9.25732 6.8631,-9.48335 6.8631,-346.77391 0,-335.16172 -0.047,-337.57505 -6.7335,-346.77738 -9.8415,-13.54408 -31.0766,-22.82942 -73.6628,-32.21003 -20.7553,-4.57186 -41.0595,-9.06057 -45.1203,-9.97493 -6.5565,-1.47628 -7.3834,-3.67655 -7.3834,-19.64808 v -17.98563 h 228.063 228.0629 v 17.98563 c 0,15.97969 -0.8234,18.16797 -7.3833,19.62054 -104.6901,23.18176 -107.7409,24.18255 -118.6586,38.92475 -6.7097,9.06018 -6.8792,12.8231 -7.8386,173.9185 l -0.9805,164.65796 88.0772,-90.24073 c 48.4424,-49.63241 99.6318,-102.66985 113.7542,-117.86099 57.7043,-62.07127 100.3852,-118.6924 100.3852,-133.17249 0,-13.64663 -19.5164,-23.10299 -65.0671,-31.52733 -25.2447,-4.66885 -26.6832,-6.28097 -26.7696,-30.00028 l -0.045,-12.30556 h 182.286 182.286 l -0.9842,18.86852 -0.9841,18.86852 -19.6889,2.44573 c -10.8289,1.34516 -35.7848,6.77351 -55.4575,12.063 -27.8082,7.47689 -40.5886,12.91803 -57.4259,24.44853 -23.8282,16.31787 -279.2536,270.29806 -279.2536,277.67346 0,4.99474 -0.9257,3.85121 162.0604,200.20258 139.9626,168.61471 172.4766,202.94534 208.747,220.40981 22.4854,10.82695 65.694,25.96852 100.9055,35.36032 13.3718,3.56661 13.9463,4.24433 13.9463,16.45092 0,7.00206 0.8963,15.06682 1.9918,17.92165 1.8049,4.70331 -20.0226,5.19061 -232.5034,5.19061 h -234.4953 l 1.5806,-17.22778 c 0.8693,-9.47527 1.9337,-17.64751 2.3652,-18.1605 0.4316,-0.513 10.0429,-2.42374 21.3586,-4.24607 36.5601,-5.88784 55.7692,-17.07027 55.7692,-32.46563 0,-12.05236 -16.7824,-35.59128 -147.6666,-207.11673 l -113.2112,-148.36456 -0.867,160.46656 c -0.8912,164.93358 0.5437,189.15774 11.8084,199.35219 9.8635,8.92635 27.1943,14.44662 67.8226,21.6032 21.6532,3.81417 42.6919,7.66682 46.7527,8.56145 6.5609,1.44543 7.3833,3.63011 7.3833,19.61223 v 17.98564 h -228.0629 -228.063 z"
     id="path4622"
     inkscape:connector-curvature="0"
     transform="scale(0.75000013)" />
</svg>
